<mxfile host="app.diagrams.net" modified="2024-05-21T09:09:16.122Z" agent="Mozilla/5.0 (Windows NT 10.0; Win64; x64) AppleWebKit/537.36 (KHTML, like Gecko) Chrome/124.0.0.0 Safari/537.36" etag="eqJWdinZ3xOBQPyb3O_1" version="24.4.4" type="github">
  <diagram name="第 1 页" id="gqDG2Gp0E2L2Fy4fAPNA">
    <mxGraphModel dx="1434" dy="780" grid="1" gridSize="10" guides="1" tooltips="1" connect="1" arrows="1" fold="1" page="1" pageScale="1" pageWidth="827" pageHeight="1169" math="0" shadow="0">
      <root>
        <mxCell id="0" />
        <mxCell id="1" parent="0" />
        <mxCell id="3Tfccr52SiQmyFZQaD_a-1" value="打开浏览器" style="shape=step;perimeter=stepPerimeter;whiteSpace=wrap;html=1;fixedSize=1;fillColor=#d5e8d4;strokeColor=#82b366;" vertex="1" parent="1">
          <mxGeometry x="40" y="120" width="110" height="50" as="geometry" />
        </mxCell>
        <mxCell id="3Tfccr52SiQmyFZQaD_a-7" value="数据建模" style="shape=step;perimeter=stepPerimeter;whiteSpace=wrap;html=1;fixedSize=1;fillColor=#fff2cc;strokeColor=#d6b656;" vertex="1" parent="1">
          <mxGeometry x="140" y="120" width="110" height="50" as="geometry" />
        </mxCell>
        <mxCell id="3Tfccr52SiQmyFZQaD_a-8" value="表单配置" style="shape=step;perimeter=stepPerimeter;whiteSpace=wrap;html=1;fixedSize=1;fillColor=#fff2cc;strokeColor=#d6b656;" vertex="1" parent="1">
          <mxGeometry x="240" y="120" width="110" height="50" as="geometry" />
        </mxCell>
        <mxCell id="3Tfccr52SiQmyFZQaD_a-9" value="流程配置" style="shape=step;perimeter=stepPerimeter;whiteSpace=wrap;html=1;fixedSize=1;fillColor=#fff2cc;strokeColor=#d6b656;" vertex="1" parent="1">
          <mxGeometry x="340" y="120" width="110" height="50" as="geometry" />
        </mxCell>
        <mxCell id="3Tfccr52SiQmyFZQaD_a-10" value="页面配置" style="shape=step;perimeter=stepPerimeter;whiteSpace=wrap;html=1;fixedSize=1;fillColor=#fff2cc;strokeColor=#d6b656;" vertex="1" parent="1">
          <mxGeometry x="440" y="120" width="110" height="50" as="geometry" />
        </mxCell>
        <mxCell id="3Tfccr52SiQmyFZQaD_a-11" value="测试部署" style="shape=step;perimeter=stepPerimeter;whiteSpace=wrap;html=1;fixedSize=1;fillColor=#f5f5f5;strokeColor=#666666;fontColor=#333333;" vertex="1" parent="1">
          <mxGeometry x="540" y="120" width="110" height="50" as="geometry" />
        </mxCell>
        <mxCell id="3Tfccr52SiQmyFZQaD_a-12" value="功能交付" style="shape=step;perimeter=stepPerimeter;whiteSpace=wrap;html=1;fixedSize=1;fillColor=#dae8fc;strokeColor=#6c8ebf;" vertex="1" parent="1">
          <mxGeometry x="640" y="120" width="110" height="50" as="geometry" />
        </mxCell>
        <mxCell id="3Tfccr52SiQmyFZQaD_a-21" value="" style="shape=image;verticalLabelPosition=bottom;labelBackgroundColor=default;verticalAlign=top;aspect=fixed;imageAspect=0;image=data:image/png,iVBORw0KGgoAAAANSUhEUgAAAUkAAAFJCAYAAAAWit+oAAAAAXNSR0IArs4c6QAAAARnQU1BAACxjwv8YQUAAAAJcEhZcwAAFxEAABcRAcom8z8AAEJ8SURBVHhe7Z0JfJTVuf9fBREVM1tmBhQLM9mAVtuKa5XMkmRmsuDSSrW1tbe3ta332sVa/9WSmUkQpWpte2+vG0E2tytahSwsooLLtbWuQNiXkGSWLAQSwhKWnPf/PGfOAMILZp28M+/z/Xx+nwBqq2fO+c3znPOc50gE0V/YNWPPY94JY1hR1kRWnHUVK8x2w8+bWVH2f8DPcvjzp1hx9ougavj1e/Dna+HPd4Ki8PtdoH2gTvjrR9sKMuWNDpu8xWljWx327m0u25HtzvGHtjttB0H7djjtu+tdtjrQJ/VO29J6l72izmn7ww6HbdpWxzhfvcOW35SXce0ud+akvSXZ6eJfkSAIYvBgvsxzZTAc5snIZIWZBTHzy34Mfr4E5vYmmOJnaHpycXY7/DmTb5wgyzdNlPlP1A2oHFmeKlSCyj6uYiH49S4wyQ25NnkzGKWStoC2Om3ydqddrnPZZTBJOeTOkKN5GXJzfuwn/jkYasdW5/gt8Pe/tc05vnKny/ZSo9v+eMhtv22rIyOzwT324vbirxjEfyJBEETPkCdNGgHGBxFhzg1geL8B88Mo8A3QNtBBbmZodGh83AzjRniCAcZNr7fqgUn2RHETRQONgGmiceLPRjDTbfDXNjvGH97uGN++w2nbAGb64jbH+Pt2usbf2ZqX4ZQd40aKoSAIQuugIcjenPEiPX4ATPDvoM/AJCPwk/FoEE0QDfHkCFDJ5PqrATLJ0ykehW4DA0UT3QkmGgbjbM3P5EYKf23/Voftc0jd3wy5bH+pd2V6wo5xE/b6Ms1iyAiCSHXAiCawwpwfgxH+BdLllWCGLdz80ATj6XF/I8K+apBN8kxCA0XjxGgTjbPBbZd3gIlC5HkYIs71O5zj/1bntt0bybNdKYaSIIhUgBVPzIIosQg0C0zxAzDFZm6AN4s9Q26ICoY1FBpCkzxZPOoEYXqOEWd8v3OL07YH/uzznW77y2CktzUXZH1DnjZphBhugiDUjuxwDGe+zG9CpPg7VpzzOhhjE98v5IcnKjPFk6Uik1QSGidGlxhtNkKkiT+380hz/Bt1TtujTXm2fDJMglAhzDPJKBdn5UOE+Ecwxc8hWuzghoh7imiKSoakRqncJE8WmiZGmmGIMDHS3OYY3wWmubXRZf/bDmeGd3e+/SviIyIIItFAxDKK3Zg1hRVnPg6m+AmPDr9wynySASWDkswkT1b8RB1LknBfc4fLtrXOaV/Q7M68ZZcvM018dARBDBayJJ3FitEYc2ZBOr0JzPHQscOWZDTFk5XkJnmiMMpEw8QIE80TIs76RlfGI6E8WwnWnYqPlCCIgYBNnZTJinLuAyNZDcZ44FgaPRQn0IOpFDLJE4UpORa448EPHgLtcNn/0ZBnf6ileGKW+IgJgugteADACjNLWEn282Ag7ceKt5Npj7G3SlGTPFF4Yo6pOB78bHXaDkB0+VJDnu12uWTM+eKjJwjiTLCp2TYwxnsgnf4XRI3dvJg7lY3xRGnAJOOK12XGbgLZ5TqnbW2j2zaj2ZGRKaYCQRAnwkoyrmVF2U+x4qzWY1FjqqXTXyYNmeSJwugyVlbES4o6G532ZyP59iIxNQhCu8iOSaMgYiyGiPFVVpLToamoUUkaNcm44tFlSz4/GT9c57a92eDOuClaYL1ATBmC0AZyyeTz5alZ/wZp9bvcFFN9r7Gn0rhJnqjYFUk7vx4JP1eDfh4tuIzMkkht2E0TTHJx1s9YUc6nx8wRjEHRMLQoMslThNElFqs3uCAVd9k3hp32X7Xm51wkphRBpAbshpwLIZ3+FUSOnx27HkjmeKrIJE8r7F6EdZdYRgTR5cZGMEtGkSWR7GBZh1zE0+pP+U0YjByVzIEUE5lkjyRScLnOZVuHfTDx9pWYcgSRHPAax6lZ32PFWR/wtJoix56JTLLHwhPxBogsMRXf7rR90uTO/AHd5CGSAn5tsCRrGS/foT3H3olMstfCPUu8Ky6iyxVht61ATEWCUBexvo3ZT0NqvY/MsY8ik+yz4gc89S5bV4MrY36ra3yOmJoEMbTgiTUrySkFc4xQKU8/RSbZL20CYekQHu7UuWytYJhl7Z5JRjFVCSLxyIXZN/FDGTLHgRGZ5IAp3lADn57AFyLFlCWIxMBuyJzECrMW8rvVdGI9cCKTHFBhCo5XHev5Sbj91Ygvc5KYwgQxOGBJT+xZhOxmGduVae1u9WCLTHJQhDWWTbGosrnRZbuHTsGJQYEVZ12Frwvych5KrQdHZJKDKuxlGcmzo1muggjTJaY2QfQPds3Y81hRznSIHvfQqfUgi0xy0IUpOLZn2+60H6jPs5XTrR2iX0Bacg1EkG9S9JggkUkmTDtEL8t6l311xGG/Qkx5gugZskMazoqyfsmKc1p5+zKKHhMjMsmEKh5V7nTadjW67b+RZekssQQI4vSwAt4Z/CWKHodAZJJDIiwXQrNscNv+HsqzZYulQBCnwqZmfZuV5GynvcchEpnkkAlPwGNPSdjqQbeIJUEQMbAJLivKfggiyCO8W4/SAiYNvsgkh1zYXQjS7274+Xizg7oLEQDzZU4Cg1xOt2ZUIDLJIVf8amNTfoZc5854K0R3wLUN82XdzEqy6ujWjEpEJqkq8WuNLntdhNJvbQLR4+9ZSc4BSq9VJDJJ1QlbsNW77EdDbntALB0i1ZEd2emsMHsenV6rUGSSqlS8s9AO5/gXOgvsFrGUiFSE+WyXseKc9+Ub6d61KkUmqVrh6Tca5U6X/cNogf1rYkkRqQREj24wyB20/6hikUmqXlgmBKl3XWMu3f1OKVhR9g9ZSXYHGaTKRSaZFOKPkDnt++qd438ulhiRzIgDmsN0QJMEIpNMCmGZEHYUqnPZWZ3b9iBdZ0xSZMe4kaw463+4OdIBTXKITDKphE0yIPXGMqH7xLIjkgU5365jxdkvxq4XkkEmjcgkk05477vBZd8fyc90iOVHqB1YaOlgkFUxg1RYiCT1ikwy6YSpNx7m7HDaPvj4Z5PPEcuQUCuig8+71N4sSUUmmZTC8iCeehfYpoqlSKgR5svMgAjyIxnfnlFagCT1i0wyaSXe0JknliOhNljhhGz+tCtGkEqLj5QcIpNMWoXdGfKW3PHvs1uuOU8sS0ItyJ7sCaw4aw0ZZAqITDJpVQfp9janLdrqyJ4gliahBtjUiV9lJTnrySBTRGSSSSu8373dMb6j1ZUxWSxPYqhhnoxMVpRdSwaZQiKTTFphJLndaWve68ucJJYoMZTgKTYsqI95owqlxUZKTpFJJq1CeRnyVof9w935dp1YpsRQwW7MuAQiyA/pFDsFRSaZtGrOx7e8bS+KZUoMFSxvgokVZ79DKXaKikwyKbUVVI8vLrozfyCWKjEUyA7zKFacVUUGmcIik0w64Y2bkDtD3uaw1eKDemK5EolGnjZpBKTYC+iqYYqLTDLphKfaIbf9SNiZcaNYrsRQwIqyHieD1IDIJJNK8W7ldU77Y2KpEkMBGOR91O5MIyKTTBqhQWJjCzDIBcyXea5YrkSigcG/hZVkHyaD1IjIJJNCcYPc6bLNx60wsVyJRMNKJlzLpma38FcNlRYUKfVEJql6xVPsBlfGfIoghxDe0ackexO9SaMxkUmqWljqgxEkGqQ8mXpHDhly8aUGVpz9NhmkBkUmqVrFDbLOaVuAT6OI5UoMBawo60mqhdSoyCRVqfgeJI8gHY7hYqkSQwErzLqbH9LAYlFcRKTUFnzubWSSqhJGkLgHiYc0DdeMpV6RQwkryc4D7aWT7BQRftHhI2z4eWIJFx7AKQm3VeKCDOKgLxsWZIbc6EbZuRpOVOzhKX4NDh+hwmJmXMhKC5zUPx2PIG20BznUyDfmjAeD3Ez7kEkqNEQ0Q250E2MCg2TF2V2sKGs3/GwEbcB796BXWVH2M6ww+1H4zIOsOOte0N1y8YSfsZLMH+/2Zv56h9Me2Om2zap3jf8TmOETYI4L6122aohm3gN9ut1l3wiLeMeWXFsrGORhNMym/Ay5NT+Td8hG89wGC3wLLHTUyYuf9OU6YQ9yYR3tQQ4t8o/GjYSFtIT2IZNEcUM8Fg3Cr9EQi7JDoFVgfPNYUc4MVpzz76xkgocV2i5lnklGOSidLT7yfoEP4eP/FkY2LXkTsqN5tuKQ2/6LnW57cJtj/J+2OcdXbXfa6sAkj+AD+migsagU32CxKxoC6Ys6FkG6qcxHFYBBTueLTWlBkoZe8bQZP6ObMULMxggxAp/bv3hEWJz576xo4tWyN2e8GhocyNOkYW2ejEua8myX1rnHuRp4RGp7c6tz/DpY/J3NsPjx0aoTo00lo9Cq4nWQ8KWzgArFVQArzCyAiGM/j0aUFihpaITGGN8vhKgR0uF9clHWaogQH4FI8VY2NSNTfIRJA5pniztrSr3T/mtI5Z+EqHI7GiRv8SVMU8k0tKR4ir2TynzUAYTxYyEa2Uj7kCpRPI3G/UQ0xpLszRApvgIGeSekzNlyyZiUaoPV6bZZd7jGfz2UZy/d5rSvhBS9BRvH4kERHgZpLcKMn2I3uGzzqMxHJYBBPk/PL6hA8QOX+L5iSc5s+PlddvOEMeKj0gTNBVnf2Okaf2e921YNhrEPT9IxqsL0U8lUUknxCLLBTRGkaoDU7d/44sS9LqWFSxpc8XQ6Zo6sOKcVvrBeB2P8IbvZbhEfkWaRg47hUce48WFXxgM7nLa3tjltjLcDg3QczUTJZJJZx8t8qFBcNfBXDouzI3RYMwTCL6V41FictVEuzCpjU7MvEx8NoUCjy+4O5WU8Aul4Q4M7Qw6DoaRKKh5LsTNpD1JN4AcBUcsS2odMsERKDV9ODCLGFWxq1vfkaZNGiY+F6AF7bvy6Ppxn/1WDy/5uPaTiWFKEe5dK5pMMOrHMh06xVQTz5fySR5CY7iktZtLAih/EcHPsAM1lvkyH7JAopeoHeIBV77ZN3enKWFrntB/AciIsJVIyIrUqvgeJzSqoDlJFsBtycmChNlO5TwJ03Bz3QOQ4G1Lrq8THQAwgTfn2vHqX/RXct8SbPskQWR6PIKmjuKrAGxKwYP9Ot2oGWRihozmWZHeCnmE35lwqPgJiEIHIcgqaZZ3L1qXmPUtKsVUMRDJ30Gn2IArNUezzsuKc/4XfXy+GnkggYXdmQWOe/Q1swIH1lkpGNVRCgxR1kHTVUG2wGzMuAZPcSWn2IOlYKU/We2CQN4hhJ4YIPJyM5Gf8cIfTti5eOqRkWonUCXWQVOajRlhR1lOUZg+CRDkPK8lpZEXZ96TajZhkp90zybjTaQ9ud9p2o0FhJKdkYIOtuEHyR7uozEd9QHQzhZVkd1GaPcDi5ph9hJ9Ye3NyxHATKqTJZ7sMoslX8QYP3hNXMrLBUnwPcifepJk2bZj4VyLUgjxp0ghsikBXDwdQx6PHWlaY+R0x1EQSEHLb/63Oad+JKXgiospYBJkZ6yh+C3UUVyXs+ol3ySWx5quKC57UO90gosfC7KchQr9YDDORREQLsm0Q1b2IEeVgRpXHDmnwFJs6iqsT1iKNYQ9aPmRTsw/IebgfSUbZZx0v69mOjSfEEBNJTIPL9u87nLYWTIUHulzohEJx6iiuZlit9JjcIMlsxcgW9uuLwyx/wn7ZQ4c3vRaWTWEEWZyzGNuVieElUoBGT9bXsYEG3tjBIvRNJ5ldX3RsD9KVMX8LlfmoF7ZJuoxtlHbL2yVZrgOj3CztZy9dGGI/HN/EXBO75EKKKnuk2N7jQUitH8D9XTG8RArBbhl7Xshlf6jeZTvU37pKjCAxxebNKqhQXL3g+yNsnfS83Ai/XC+0GbQDzHLt2XvYf5sa2c2Zrcw9oVsuIrM8rWKn11vAIIvE0BIpTDgv48ZGlz2EUaCSAX6Z8O44r8mkbj7qh62VCiCKPCpvOsEk49oKRrlDOsreH97Gpo8OM29Oh1xAKfgXhIdc/M511ptU2qMtQo6sbzS4bB+h2W3rxR1wLFZHcwWTnUOF4ipHXiUNhyhyJe5FnmKQcW0AbQOz3CYdYlUjo+w/L4myvAkHab8SdKydWdYcufhSgxhWQkN0FtgtO922uXjyHTNLZWNE4T5mU14m/jxY77TNoFPsJICtkW5km6VuxSjyZG0EYQq+QTrA5qdF2O02TMGPaHa/EgySTc3B4nC/GE5Cw4RcGd+FCHHldpeN4Xvi8UJ0VMgtXnt02vftdNpeg7/3W+IfI9SMXCuNgCjyXbkezK/2BDP8MuF+JR7ufDKsg/0pPcRuyGoDszyqqf1KfnqdfYAVZv9UDCdBcBrdGS58d2eny/ZSvcv29k6XfXW9016BJUTRgvFXi7+NSAYgIrxN3gKG15MoUkm4X7ldOspWj2hhfxjTKHtz2vl+ZaqbJU+vc1qZL+cWMZQEoQjuN9KeY5ICkeMoiCI/lHcqmF9vhPuVmIJvlQ6yJedF2J1fwfrKA7I3RfcrYyfYIebLzhNDSRBEKsLWS7fiYQzfZ1Qyv94Ko9HYfuU+NlfXyG6zt/D9Sl8KRZUxg9wJKfZ1YhgJgkhFZFkaDib5Hu4rKhpefyTqK+WPh7WzR8yN8tSsdn7FMdlT8FiKvYNNzbxGDCNBEKkKWyvd3OMT7b4qVjLUzd4c0cp+d1GIebI7k7a+Eg1yanY9ozdnCCL14VFkrbT8jHWRAyXcr9wOZrlFOshevyDC/n1chLknHpR9SWSWPILMjrCirFwxhARBpDJgXvlgWkcGNYo8Wfj/hSVD687qYE/rQ+y7Gc0sLwnqK2/IwT3IXXJxVr4YPoIgUh15nbSI10UqmdlgawsY5Q5Iwf81vI3NtDRChLZHtfuV3CBzulhRBrU5IwitwNZJX2cbpA6sb1Q0sUQofsVxu3SErTy3hf3m4jDz5BxQ1X7lVBSYZHH2XWLoCILQAmCSf0rIXmRPFK+v3CR1sVdGhdkd46PMnXNoyPcr408tFGbPFMNGEIQWgAhyDFsvNfDaSCXTGirF6yvXnt3BnjCE2LczW5lrCK84xkp9npOnSfQAE0FoCVYr/ZLXL2IEp2RWQ61YS7Zu9n/ntLKAtREiuT0Jv+LIDTLrfZY3wSSGjSAILcDLftZJ/xyU4vGBFpYM7YAUfPnIKLv7khAY1v6EXHGMNaxoZFMzviqGjSAIrQDmk882S138NoySMalN8RR8o7SfLeQt2WIlQ4N1xTHW8uwgK8q4UQwZQRBagq2XZn/haYZkUby+8tOz97K/mhrZjZnYko0NaAqOrxryKDKrXAwXQRBagm2VLoFUu5W3RFMyomRQrCUbY++e08b8o0PMm71XzscUfADMEp9dKMxajo87iSEjCEJL8AMbfAFxoLr9DKUwBd8qHWKV50XYLy6J9Hu/EiPIkuxGVmzPEsNFEISWkBdJwyDVfmvIbtgMhuJPSGw6q5PNSwux79mjzDXhcK+vOGKazQvGs+4Qw0UQhNaANPtKtknam9Sp9umEVxwxBf/k7D3sETM+IbG7V1ccsdynKHuBLElnieEiCEJrQKodTMoDm54Kaz7jT96uPqeV3T+mZy3Z8F52cdYO0MViqAiC0BrsA+k8MMk1fD9SyWBSScdbsh1ir10QZT8dF2LuCV2yVyGqLOHlPt2sKPMHYqgIgtAibKPkYuulo0lTGzkQwv3KWEu2vWy2PsSm2fHJ28NfSMF5mp31ihyUzhZDRRCEFmHrpMf5gY1aryEOpnAPFiPLj4a3sVnmRlaS3cbyJnTLU3k9ZBuY5EQxTARBaBFIO9PkWunjfr+EmOyKXXE8zN48t5ndc3GETZ2wj3lzSsUwEQShVSDNzsX9uYR2H1erMAVHs9wuHZb/94LV8uTJOjFMBEFoFVYrzUyp2sj+Km6UrdL3xRARBKFV5FX8oa9P0BQUDUOLagCDxMfPYGzEMBEEoVUg1f4mGML+lCwg74s2g0FukrrkdZJTDBFBEFqGbZDu4c11U+Gu9kConkeRr4rhIQhCy/C72mAIKX3LpjeKRZH74YvjGjFEBEFoGflj6StgkqEhfQ1RTYIvC7ZOelEMD0EQWoetlYr5Q19aLCA/WRhFbpQOyrXS9WJ4CILQOmAOf+Tv2JBJylhID1H162JoCIIg+Mn2+0nx2NdgayOPIhnbIHnE0BAEoXXYFikDTLJZde9qD4XwRHud9C52QhLDQxCE1oHI6ftss9St+dIf/O/HHpPrpZ+IoSEIguD1kX+SwycZhhYFkTREkXXyWskghoYgCK0jr5JGslpppea7/qDwCuJ66WExNARBEBBFrpHGgkk2af4qIr57s1HqBF0hhoYgCAIiyXWSk7dF0/p+JEaRa6UVskxdxwmCOAG2TrpP80Xkxw9sfiGGhSAIIgak2i9rfj8SDXKdtIttkcaKYSEIggCD3CKdC9HTZ5o3ydiBzQv0jjZBEF+AbZRyIIKKaLqIHFPtHTySvEMMC0EQRAxsagER1FFNv2eDTzOsk0JgluPFsBAEQcQAg/yV5vtHYjOLddISMSREEvKVWe0Ga2n0q2P8kcmjg5ErSKQTlR4MX24ONmSag82jxJTpOaxWelLTJokn+njLpla6WwwJkSRceH/IZC1r/rE5EFliCTStt/jDUUsgssvij7SRSCfK7I+0wtxoMJc1r4H58pI1EL3VGNyVJqbS6ZFrpRFgDm9ouvPPJm6QXWyD9DUxLEQSABP9h+by1nXWB3fL1of2ytaZ7bJ1Rhtol2wtJ5FOEp8bMFdmdvD5YoHfW8pbPzT5o1PFlFJGrpcMkG5v1fShDR7Y1Er/lD+WzhfDQqiYScHaEen+0H/HJ7wlGJUhQiCReqdgE5hlJ5jlrsNmf+MMKSgrXyBh63h7tAPYhVvRQLSgMDfJv4ohIdQMTGSzP/y09eF9sqWsVXnyk0i9EUaY8GULX7zK/RrktVI+NwqtnmxvBIPcKjEwydvFkBAqxuoP382jx7IW5QlPIvVF5a08JbcEwt8TU+04bKP0cx5FavXOdqwtWit8SUwQQ0KoFN30qM3iD7dYH9xz6iQnkfqlMESTe2WLP7I1/Q87x4gpFwMiqEexRlCzd7breKr9qSxLw8SQECoF0uyZfA9JcZKTSP1UMMr3KNP9kd+KKReDrZdewut4igaS6sIvBjy0WS/NFcNBqBTrY9ELYCJ/zlNtpQlOIg2AcH6Z/dF3Mn+55Vwx9bhJvqVpk8SbNmup64/aGe2PXAmRZDuW9yhNbhJpIGTFvW5/uNM8vTmDTzxINbEb+aearZHEfViskfxMuo4PCKFazP7IdyxlTbKlrFlxcpNIA6IgzC+YZ9ZgtIRPPPaRNAZMso7vSSqZSKoLu5Cvl6J0X1v9mEsb7+AHNkEwSqXJTSINhHB+8VPuyL184uGJrlwrtWv2yYbYoc27cpiKyNWOORD6EZkkafAV5afcZn9oNp94YBBXQSTVrdkayRA3yef4YBCqhkySlCjhRQWzP7ySTzxIM518P1Kr5T8xk3yIDwahasgkSYkSP+EORNZiRQW+s30zGoWigaS68NAG9yQ3SHeKdUioGDJJUqKEPQEs/nB4TDD8Fby3fZdmy38280ObQxBJ+sQ6JFQMmSQpYSpvwXT7gOWBxsvQJGdotvwn9iribvap9HWxDgkVQyZJSphgjmFbtTH+8BQ8uHlKs+U/sSa7YTBJs1iHhIohkyQlUqNnHZDNwcgtGEm+qNk+knjTZr20QZYl5R5yhKogkyQlUtiUF0zydxhJVmPaqWgiqa5Yo913xBokVA6ZJCmRsj7YDj/Dj6FJvqvZQvJYY4tXxRokVA6ZJCmR4nPNH34WTXKNZjuS422b9dIzYg0SKodMkpRI4cGNORB9HTsA1Wn2tk3sSuJjYg0SKodMkpRI8S7l/sh7GEk2abYjOZrkBiko1iChcsgkSQlVGa+VXI8muUuTJonXMNEk10m/E2uQUDlkkqSEqqwZ0u3wTjTJDk3e246bZK30n2INEiqHTJKUUMXmWQRN8oDGTfLnYg0SKodMkpRQwTwzByK70CSPKJpIqitukuuln4g1SKgcMklSQhWMws/wXjRJpmgiqa7jkeSPxRokVA6ZJCmxiuKeZBdFkhRJJg1kkqSEyx/upj1J2pNMGsgkSYmWWZgknW4TSQGZJCmxgnTbHz6IJkl1kkRSQCZJSqhOOLjR9o2bWrpxkyyQSZISKpxn/kgbmqS2725voLvbyQKZJCmhgnkG6XYzNrj4nLoAEckAmSQpoYrNswbsTP6exvtJ/l2sQULlkEmSEipscFEaa3Ch9c7k74o1SKgcMklSQlXeisXkH9AbN/TGTdJAJklKpHg/yWBkOUaSmn8tUd4kpYt1SKgYMklSImWdsRsjyUUYSZbjAYaiiaS66N3tpIJMkpRI4Vwz+yNz0CTvkhsUDEQL2sxN8hDbKHnFOiRUDJkkKZGyzuyQLaWRWRKYxU1ySMFAtCAsot8CRrlBulOsQ0LFkEmSEinrQ51yeiD8awmMwsnTbS3e30bBFwSrlR4S65BQMWSSpETKOmu/bA2EbpXYJulKSDm7NXvrJmaSz4l1SKgYMklS4hSVRz/ciXMtXwJznCDXSu2aLSiP3bp5j30uXSDWIqFSyCRJCVNZM8wzkD90rcQ+ksZAJFWn2TIg3JOMNfkYL9YioVLIJEkJUxkvJN9nCEa/JsmrpJFgEp9qtgwID2/wlHuTdJ1Yi4RKIZMkJUpYI2nxh0OGB9su4ZMP0s23NFsGhAdWePNmnXQXHwxCtZBJkhIl68x27AC0zvRI64V88oFJvqRpk4w1upjLB4NQLWSSpEQJy38s/sh7YuqBSdZKj/I9Sa2WAcUObz6TV0nDxZAQKoRMkpQoWR/eh29uLxFTj0eSv+A9JbXaoTx2h7sVUu6JYkgIFUImSUqMovy2TXog+oSYetwk87hZaLVWEr4c2BaJgVHeLoaEUCFkkqSECOaXtbxNNvtDx9+/ktdKdjDKA5rtUI4K85T7L2JICBViDkbuIJMkDbpwfqFKm24SU4/vSRrBILZqtq8kKtaA9x/yx9L5YlgIlWEORKfxIl+U0uQmkQZCZS3wM3wUTPJSMfUgkqyVRoBBvKHZWknUJm6SXWyNdHxgCFVhDoa+ZfGHO3kzVKXJTSINgHB+mQPhJssDTVYx9WKAQTwhNyqYh1aEh1Z4gLNBulsMCaEy7L/frbP4o+t5CyuFyU0iDYRwS8fsj/zDem/0i1eV2VrpV5o2SdROvi95/NifUB1mf/TP1of2KU5uEmkgxGskg9GF4AhniWkXA8yhCKKoI5o94UbFbt6E2eeSTQwLoTJGl0YmwkTusMxoU5zgJFJ/NXrWQfw5XUy547A1Ug4YRETThzfx2ze10o/EsBAqxOIPlY5+GKJJ7NKiMMlJpD4LT7XLd8nWQPRWMd2Ow7ZI50Ik+SmmnIoGohXV85T7RVmSvhhqE6phXLBupCUQXmSddYBOukkDKn4o6A/vMZVHrhTT7YtABPUyN0mtXk9ExVqn7YIvjbFiWAgVYrqv9UKzP/Ii7h/x2kmFCU8i9VbY2AJ+br7o/g0mMdW+CERQv+PptpZNMn7KvZ66Aqkex6rhkB791lLWErI+tJdfJcMWV9byVt4PkNe7kb5EYpwUDEOLwnlkDkTeEDPsVNhaycEPbrR6hzuuBh5NrpBl6WwxNISKsU7faTOXt95vDoT/aQk0hWGyd5r94UMQaZK+TIFIF/w8CClm98mGoTkFo7GspCwyS0ytU2FrpLEQQUU1+5RDXJhyb5I62UbpCjE0RJJgnl6fkR6M5JqDEV96aWNRuj9SSDq9zMFmD3y5/N5S3nJE89c94b+fF5IHI98W0+lU+OEN3rzR+uENqpGn3Kf/RiGIFAGi7hmYZioah5ZU1oKp9gFTaShHDI0yYAx/0uw73CcK9yXXSXXwpWEUQ0MQKYflge1WfKbASnWn8QPAjw2/364Tw6MMmML3IdXs1vy+ZPwAZ530UzE0BJFymP2h/+DvuWg91QbxkrJAZJ4YmtMDppABRtms6aLyuLBmslZ6lzVI54nhIYiUwfpY9AJzafgDfg1PwTQ0JTy0weoIf7RnvRsg5X5f0x2B4oJoEqJqxjZIHjE0BJEyWEpDN/ByKYoi+S0b7DBlCTZeI4bnzIBB/JGbpJbrJePCphe10utiaAgiZQCTXG6dSQc2KLEfuWnsPaxnWSNbKxVrvqg8LnyTe6N0UK6VrhfDQxBJjzUYdVrKmrt4JKlgGlqT9UF8QjbyvBieL4etky6B6Ckkb1UwDS0qVg70ohgegkh6ILV82frwfkXD0J5i+5GW0nDPD2nlRdIwMMlXNd9fMi6MJjdJ++HL41tiiAgiaTFNb+RRJF1HFOLjEO2E6PprYoh6Bpjkb7FtmOZLgeLCq4rrpVfF8BBEciLLZ5lLGyupePy4+Om+P/TO2Md7uB8ZBwzhm2CU+zV/RTGuWDTZBdGkSwwRQSQd5mDYYylvPURRpBCW/jy8T04PhB4RQ9Rz5FXScDDJT7Bbt6JpaFGxaHI5jo0YJoJIHn728Tlmf/gtqos8QbEvi6N4z1+MUu8AQ5iBBdWKhqFF4dbDVjDKjdL3xRARRNJgDkR+iI/uU0f34+K3jQLRneOCe/RimHoHWyNNYZulQ5p+9yYuLIfCZ2e3S4f/8bFutbRo2pnvdxKEitDd326AKHIDvTT5RfG9WX94rhim3gMR04WQcn+k+a5AuB+5WTrcvHZE869XfzVy0du+fWmVRac+FEQQKsUSjATEK4CKZqFJif6Ro/2R74hh6htsg/QnnnJrsbAc02uIHrs2nN325P+Na8xc6to9vLK4+8I3imVjpbfNWF00UQwTQagWS7DpMkgp26jTzxdlnbFHNgfCOwzTQ5eIoeob8jrJydZLRzGaUjSSVBR+IWD0uF7au/QjS+hby7/VCuZ4+ILqItlY5eUyvVUsGxZ7/i7JQepeTqiXafIws7+xit4qP1VYTG/2R/p/SYR9IJ0HKfcaTZxyx/cdN0qH1nx2YfTWlZeHzl9S1DWyCgyx2nfMILlqfLJpeaFsqvT+UAwVQagOayD6Yx5B0quSX1SwWbbiyXYw8gMxVP0DUu5Ayt++QXPcJB1tXjui9XfvTAxZqwo6h1eVyPqTzfEEmVYWyYYqT51xqY9eViRUhzUYHQ9pdkOseUP4VKPQsPgpfyAcGv1AxCyGq3/gWy9gIHtTsrA8Fjmy7g3Snqf/MS40YZkT9x3lC6sLFY3xZJneLpaNSzwLYZjonW5CPfA0O/wypdnKwgJyGJ+nxWj1H36Xe530VkrVTMb3HTdJnas+MoXcK6+NjlhSfPi8E/Yde6SlsbTbuMT3IzFcBDHkWAPhn/A0m2oiTxVuPZS3Hk33R4vFcA0MrFa6m7dPS4W73DFzPLTp81GRH7z1jcio6sL951YXnzG1PpNMb0DaXe0Npb+Wly2GiyCGDGtp9KvmYLTJ+iAWSiuYhMaFtaIQRa4z/HH3wNY6i/ZpLUmdcmOn8Q0Sa1t3TtuM9zJDY6oL9g6vLJF1PUytzyRMuw1LPCvGrXKMFENGEAlnTDB8PhjAKuvDdPVQWaItmj/yqBiygYWtl55JygMcUe94ZP1Ze5//8KLGS2ty24YtKWE93XfskWrAKN/kZUEzxHARRMKxlDY+FrubTUXjiirjz8Z2XfSH5m+IIRtYwHDy+TXFZKmZjO87bpT2r/rEGPGuvKr53CVFR86r6uW+Yw9lWgamu7zwoLGq4GYxZASRMNJLQ7dZytsOU7fx0wu/QMz+SJW0SB4mhm1gkWVpOKTd/0yKa4pojpulroa1I6N3rr40lFZVuG9EVYlsqOrbvmOPVAlGuRIMuMYb1tcUXiqGjSAGHXNp89ctgaaodWY7mAGV+ygq2ITXEJk5EBrcQ1a2QbqbN+NV6zXFWL1j977aYa2z3s9qHFuTvwdLetIGMrX+EuFtHPj5f6MqHeli2Ahi0DAHm0dDev0RtUA7s0S96LaLHg6ZxNANDmCSY9h6qUF173Ifvy3T8dq/rI3fXD6ldVhl8dFRNYOTWp9R1cIoK73PO1Y5qPckMXgE5eEWf+gVrPujfcgzKRrr+BMIPyZGbnBhtdKj2IBW0awSrbg5bpC6Pv5MFy5ZeVX03MrCQ+fxq4QnmVcihdcW3yyWTZW+h8WwEcSAYykNPcIXP72dfUZZy/B98chea7Chd+/Y9BW2RroUosmOIX1NMW6Om6QjDWtHtvxy9dfCxmrPgXMqz3yVMKFaWsgPc/RVnrvE0BHEgGHxN/4mdi+bnmL4MolmFj1/MnYggGjyf4fsBo7Yd+xaf3bbXz6wNWYsdfOrhIncd+ypTCvg32mp76BhccFtYugIot9YSht/gG/VWGfsAhOgg5ozyVoOXyLlLYfM08MeMXyJQV4r5bMt0hE0LEUjGwyJekfcd1zyoTV09fLrmyFyPHJiCzM1yvQGN8o9hiqvVwwfQfQZU2n9DRA9dtCNmp4p1o099O6glf2cDl4OtF5alpC9yeOHMgfXfj4qcstbl0dGVhYdHFldLIPxKBqT2iRKg6L6xQW5YggJotdY/KE8CzbQfZBKfXok3n0cv0zCt4shTCwQTd6Eae+gRpMxc+xuWTui9b53JobSqzyd51T1/Z71UMr0VpFsWubbaawuuFoMIUH0GOv0qBNSxzC9U9NziRPtT43BLWliGBOLKC5/b1CKyzG1BnWtP7v9qQ++0piz1Nk+TKX7jr0RLw2q8dUZqj3fEsNIEF9K+vSGXEixwSBx0SsbAukkYfH4jN2yORAa2oNTSLlvHdDuQMf3Hfct/8gcyl1xTcsIvEqo8n3H3ogb5VJfg7nSd70YRoI4LabpjW5LeUs9GWTvhMXj5tLQRsMftw/ty6ZyrTRqQK4q4r5jrIXZQWxh9r23Lg+Pqio8gC3MkmXfsTfizTBqfGFjZUFiT9yIpMJS2nCTpay5jQyy94o9F9v4GzGUQwuY5G28hVpf9yYxctwkHd1dO7wl8F52o7Xa034OpNa6JNx37I34Yc4yX5ux2jdNDCVBHMMSaLjdUtbaHruPrWwEJGXF2qGFtowJhtVxNRiiyRGsVnqH103WnmSAZxKm1rGOQu0L/nlx6KtLHW3DqoqPDmgLM7XrDX7qfcBQ6f25GE6CAIOM3GMJNB2hMp8+CE+0uUmqJIqMAyZ5A9vcw5PueGq9UTqw6mNjOH/l1c0jKosOn1+ND2udZCIaEC84X+47aqz0BcVwElpl2qJhsNAfwZs0sUJxBRMgnVFYHmX2h2rHBev0YlTVgTjpXnnGusnjVwkPbVlzQeQnb18WTav0HsCSnlOebNWalsF/P3990Tt31Asl1D1Ig2BqaA6EXuB7aXhLhOogey880Z7ZLqeXhn8qhlVdQDTphuhQ+RaO2HfsWDe87aH3sxrGVBe0D8OnEwazv2OyqcYnp+PrizW+dw1LXF8Vw0pogPT7t002B6L/GI3tzqhZRZ+FXzDwRfOx9bHoBWJo1QVEk2dBNPncF6LJ4yU9e17+cEzj15fl7jpnSXH3qBQq6RlQYZs1NMplhdv01d6Bfc2NUCVmf/N3LOWtDfTsQj8VbJaxK7vZH/mOGFp1wtZKl0HE2MZrJ2MlPfv/9YkuVPzmVZFzq4oPnpeiJT0DLXHyfdBY6QlIi6aNEMNLpBD4aJfVH51pKWs5TCfY/Rd/Y9wfXpbwO9p9AYzyMayb3LlmZMvdq78W1ld5949I0quEQ6rlhdwsDVWeStNib44YXiIFMJfu+Dqk12/G9h/xTRraf+yP+Ls+5bv2pQcjydEbge2Uxvz5/+wfZizPO3D2koF5slWzgi8Wnn5X++oMlZ5bxRATSYw1EPoxpNUR3k08SOn1QIiPpb/xWTHEScJrU++68I0SfhihuPhJvZIJ6ymXeY/Cr58xVrkvFqNMJBHm+7dmWoPR5zHqib23orzgSb0TryUti0bTg6FsMdRJwqJpI4xLPKvx+t3JC57URy2NRZWmGu96Y1XBLWKkCfVzlrk0coc52LxjNEY8Zc2Ki53UB/GSnw68o32fGOvkQl/lnQKR5EHjcoomB0x4+o2HOku9Rw1VvnmmxS7aq1QxlmDjZRZ/+BXsjh3rAamw0El9VBgMcq9s9oc/tN77uTpLfnqCfrH3SdPbkHYrLXhS3yWiSsNSb8hYXXCPdWFB8k6SFGT0A8xsKd01HaLG5tF46sqjRzqcGVDh2z7lrV0Jf5ZhoDFWFV9srPLU8ehHabGT+qcVRbH9yirPB7qqgpthyM+KjTwxFBgW5et0z19zj+Hp76+xzqyXrTPAIJUWOKmfivLHvaz+UIUY+uTGVOn9oWl5IR3iDJbwBBx7VOITutW+RdTQdwiQpw3Tz3f8QD/P+Yl+gVPWL7hGNv75yb2W0j1MeZGT+i5Is/F+diCyw/j/GseKTyDJCUpnG5YUvMpLWZQWOWlgJFJw+LnXUOOdo6su+Ib4BIjBYpVjpG5B7rd1cxzv6+a7ZD1INzsXdC2oYH/6jM8PWALUyWdAVdYMEXpbt2V6w9C8WzNYpNcUZkOk0xRLDRUWOGnghEXosdrKdkjDKyiyHASCwbPTnnN9N22ec6VuHkSOaI4VDln3DBikUFrF5cz439PbLf49RywBuo89UMKaSLM/8iJ2TBKfRupgXOK5m5skpd2J0TIwy1XYAd3baaj2LjBVeZ0Q+QwXHwfRB6wLCyz6uc4f6Z51/ks3B8xxoTsWOZ5gjsc0+3rUofSH3tpn8dPJdv+FaTavLw1bgk128ZGkFplLfedCZLOY0u4EC80ytmfJDFXeFaYaz/fNixyjxMdC9ADdwgKbbq5zBkSNa/ULRVp9UuSoqIorZf0Td+41B5ogmsT2Z0qLn9QjlbVgmi2bp4d+LD6W1CRtqS8Dopowpd1DINyzBLM0QSQPZrkBVJa+OO+b4qMhTsK8yjHKMNdVpJ/vmAPRYhtGjdwclczwdJo9BdLuK46YHn2xw1q6lw5x+iFsYGH2h54TH09qA9HkHfy0Gxat4mImDa7AJE1YOhR73rYN/qzKUFN4Z/oy7xjxEWmWMZUl5xufc0+CqHEWptT6eRA1LgBjfNZ5+rT6y1Rxtax76tv7zeVbDlr81G2898KicXxrPLrJFKy/SHxUqY9xifd5SrtVoPghD/yEyDJsrPZVGJZ4v4v1reKj0gT659xTLqxw3KOb6/gAzLALI0Zujn01xpNVMbnb8OfHOyyluNiVjIB0OvEOPzPauqz+0FTxcWkDbNKAKR/d7VaJ8DBNGCZG+YYa31ZDpec1/VLfXdimLdVu9Bifc4xNmz/lKv0855/TZue+n1bh2K9/IU+G38u6OY6BM8e4Zn8LlHcwfeZH+6wBOsTpsfBRL/40bPhR8dFpC1OlLw9S7v2m5bQ/qSphOv6GSMdXgGFWevfBn79jrPI8ClHm97CcS3yESYN1RcEFhufdhbpnc++F1Hmhbk5uEx688IgRT6jRGJXMbSBVMVk2/O33eyHlPmIJUJOLnijWAi2yyvRI64Xio9QekHb/gV9ZrFFYrKShF97iwQMf+IxMq2Ot7wzVvggY50fGSu9sQ433p/Dra3VLCmxoROJjHTo+/tk5upcc43XzHN9Im+v0ps1zPJ42x7FaN9uxAaLDQzxajJsink4PdMR4Js2eArr2UPqsZZ0WP0RHdJf7jOINQYLNIWtpVOPvPc1zjIS0+3XTKmqCkRTihz6QlqNpolbAFxyYKKTmEYg038F6TIg2Zxoq839qWOLx6Zf4LhtV6UiX5ODZ4hPvH0H431k0bZj0zORzLpzjytEvcN6on++4WzfXUZ72TO5fIEJcBgpxA5zrhPQ5trfIT6UTES1+mbAk6Mk79pqD4S5LADuSKxuE5oX7kGUt3dbS0G3ik9c2+uqicbC4NvP9yUqFhUlSrzDSROPE/Uz4/DDa5F94+ERupecQaLehytMIX4Qb4dfvmio9r2EEChnEY1iCBH/tXlOl9z8N1Z6fGat8P9K/7PyVfs6UUt18R7l+rvNR+Pk/unnOF0CVEB2u1j/r/AwMcBMY4naIzFohEjzCU+YX3CCIEo+dRCc4SuyNKiYfSX98wV5raTuVBCkJe0TirZrSxseFRRCIaUmB27CssIM/1K+0GEnJJTwIwhIvNE+MPHGPExWPQJWEp+yveWQwx9heYVwYDR4TRocxcTNMdMo8EKq4Fn5O3Wcu33TQ4m9TNgoNiz/oFQhX40Npwh6IOKbKgv+g+kmNSux9Gl7Mk3VPTTnVWFJMaXOu6Db+9aF2i7/9KN3rPi5somsJRjeMnh4ZJ2yBOBljlecJ3qQXF43SYiKlrvBQSCMmqZt9HUbBXekz3z9gKaX3bo7dyy5rbk8vD08RdkAooXvdoQeDfJMKzTUoLZkkquIKWf+3X+61+Fs1H01ay3fJlhm7D+NLksIKiDOR9povw1Dj22h6k+onNSWtmSR2Caq4+kj6o6/vtZZ2aPcQB/tD4mNe/nCZsACiJ6RVea4y1nhbcEOfTrw1Iq2ZJKriKln/1O2dlrL6Lk3e6w5G5dEPdcrp/vB8R1CmNn69xfi65zuwcA7jrQ/FRUVKLWnRJFEVk4+a/vxke6zAXMFIUljWWfhOTWSlOVhLrfv6iqHS8zt87IrX3SktLFLqSKsmiU89PFN40Pzguv3WgHYOcXjrs0BkzcXBXSnyTs0Qol9c8BhPu2ERKS4uUmpIqyYJSptzebfhv8s7LP7dmjjE4e9lB5q3Wx5ovEwsc6JfPDP5HEOl99l03l2bjDJlpWGTjB3iXNeV/vDqzthTD6l7r5v3hixvCZun76S3lwYSbJ5grBFPP1ANZWpKyyaJ4k89/LzDHGg6lKpPPYhayI700sYisbSJgQRrKA1V3rd5sbnSIiMlt7RukvjUw5wrD6c/uig1S4JmtKFBHrRMD39PLGliMDAtzr8IUu4PqGtQCkrrJomquEbWP/3tTkvZDogmU6ckCB/wspS3dqX8I15qQf+qa5yhxvsvupWTYiKTjGn2Fcz05/9qt5S2dysZTtIJDTLYfNTij/xMLGEiEaS95sowVnrXUeqdQiKTjImXBBUcSJ/56X6LP5lLgsKytRwjyJaj5umRu8TSJRKJcbFvEiys2nSKKFNDZJLHVTGZGf/2QLu1tA2iyeQsCcIU21reetTsD98tliwxFKS/VphtrPZ+ShFlCohM8rh4l6DrDqfPWtFpTcKSIL4HWdbaZQ6EKIJUA+mv5mfFjJIiyqQWmeQXVXEF0z/xk72WQDSpSoJiZT4tB8zT638kliihBvAhKsNS3z/5qTfVUSanyCRPFT718OjCpHmvWzzeBcZOZT6qxPC65xJjle/tWME53cxJOpFJnqrZWBJ04wH+1EMAUlgFY1KL+PvYweYW6x9CU8WSJNTIha/lmQxV3kpulLDoFBcjSZ0ik1RWxeXdhr88theiyW5IvRUNaqjF36Upa9mWHmzIFUuRUDPG53xphirPQv76Ir2Xkzwik1RWxXUQUboPps/8cJ/qSoKCUdn68H45PRD5nJpVJBuLJo0wVHr/xt+FxsfFlBYlSV0ikzy98F73/9zbYSltPaKakqD4069lzSuNwUZqd5as8H6Uy3yH8DlTxYVJUo/IJE+v2dfLaRXXHjL9sbrTOuTNecN4xVC2PohPLkSfv+j+DSax3IhkRb/Yc7uh2tvB02+lxUlSh8gkzyx86uHJ2/eaA42HLIFWBfNKjKwzdqNJdptLww9K9ORC6mBa7HEZa7zbqNWaikUm+eWquKLb9PgcSLuxwFzZxAZT2AvSWt66x1Ia/qlYWkQqYXzZPclY7XuLX2OEBam4UElDJzLJL9fsa2Td00X7zTM2HLT4IaJTMLJBkdh/tASj2ywP1BeIJUWkIoaV+TpjpfcZvkdJBzrqEplkj4RPPRj/OqPdWro7Mfe6y1rAIDvRKJea72/IFEuJSHUMld77jMt8B+htbxWJTLJnwqceZuceSn/4vX2D/dSD9cHdmF4zc1nz42OCH58vlg+hFUxV+TfQPqWKRCbZc/F73f/ZYQm0HBmce91ReTSm14Gm1vRA+CdiyRBahHcRqvIu5SfflH4Prcgke67ZMEZzrjqc/sjfB/5ed1mrbH2oU7YGIv+w3t94tVgqhJYZU1lyvqHSMwMW6RH+dK3SAiYNvsgke6eKq2X9U7ftM5ft7BqokiDeoKK8tdtS1vRfumCdXiwRgoihq/HcZFxWuJXufQ+RyCR7qSlyWsXko6bHn+iwlvazwBxPr/H+dXlrPXXwIc6Ibpl3vHGp70U8/TatoPQ7oSKT7L0qroXU23MgfcbnB/p6r5t3EJ/ZIZuDzZWjH9g5SSwFgjgDsnSWvspzF5hlE+94Tm3XEiMyyb6pYrJs+C//Xou/7WivugTx6LFTtpQ1t1n8kd9m/nLpuWIFEETPMFX6rjRU+VbiPiVFlQkQmWTfFHvqocs06+19Fn6v+8tLgjB6HA3Ro6UsssrgD10rpjxB9J6xL99ynqnScz9Ek208qqS9ysETmWTfhV2CnrhTPPVwhkOc+M2ZQNMeSyDktz4WvUBMdYLoH6bFhVeAUS7nN3Ww/ZrSIif1T2SS/VPFlUfSH3vpNPe6o7HCcHx/JhBdPtofuVJMbYIYQJb6zjUsLvitocYb5VElNfQdWJFJ9k8VV8u6p2/uNJdv+8JTD1Z+rZDfu46k+8O/yvwvRnuPxOBirM6faKj2zjfWeLv5tUa6rTMwIpPst9IqLj9q+svj7ZbSjqOWIJgj33dsPmLxR+amB0PZYgoTRGLQVxZMhRT8E6yrpIOdARCZZP+FhzjP5B00z/yo2/pgl2wNNn+Q7o8UiilLEIkHHx6DBe6H1DtqeqtYNi4js+yzyCT7r9kOWf/8dbLhid9EIZq813TfxgvFVCWIoYXfAV/qewq0j27s9FFkkn3X7FxZP98l6+eBnnWu0j93+RQxNQlCXaRXF+Ual3lrjMt8Mo8sySx7LjLJPkk/zynrF7pl3VznGv383DskOXi2mI4EoVKemXyOodJzKyz893GvkjfNoFs7Xy4yyd7pWTDH59xy2jzndt1C9//TzXNQQwoiuRj7wTXn6Rf7bjfU+D7kd8HpJPzMIpPsmeaKyHGOo1n3rKNM/7xrnJhyBJGcmBc5RhmrPHcba7yf8iuOGFlSGn6qyCRPr9kgNEeIHHVzHSH49SzDS1MuEVOMIFIDfhJe6fmxocb7TzwFpz3Lk0QmqSh+GIOR4+zcsGG+qzx9QR7VOxIpzlLfucYq34+MS33v8AMe7IpOpUNkkieqwhE7rV7owghyo/5Z53TrwgKLmEEEoQ1g0l+gX5xXbKj2vmKq8Xbw0iF8QkKr+5ZkkjFzxJR6DvyscHyqX+D8j/TnpowRU4YgtItxie8aY2XBk2CQLcf2LbV2N1zDJsnLeBZA1Dg7l8GvXzHOc0+jUh6CUEBXXWyHyPI+Y5XnIzDMbtMqkYprIbrUmkli1AjGyCPHZx3bdPOcT+rmTrlcTAWCIM7Ix5PP0S/xlJiWeheAYe4xviEOelJ571ILJhm/GROLGo+mzXWuNMxz3Jn+dy+l1ATRV8xLfRmGGs+9xkrPKkO1b59pVUmsoQam46kUYaaqSULEyAu/F7pj5jjXuQ6ixr/pFuR+Ew/xxMdMEMRAYFhScJ2hxjvTUOndYKzxHsboMmVKiVLNJNEYn48dwuhmO1r0zzorwBy/g6Vg4uMkCGKwwAJ1U6Uvz1Dt/QuY5j8wouQt27BzOqbkyWiayW6SuMeIBd+YTsf2GSNgkC/oFrr/7aIFZIwEMWSYFn/rQlNNgVu/zDsLUvLPwDDb+Z1xSMuTqqQoGU0yfvjyAvx7z3Z0p83JrYd0+jndPMdNphccE8RHRBCEanhm8jn6pb7LjFWe30CE+ZqhyhPl98ZFWRHfy1RrlJkMJon1ixgpxlWR262f41ylf9bxuG5e3nekZ0rOF58EQRDJgHmJJ9NQlV8E0eQfwTAhLfc181s+q0uO3/RB01RDtKk2k8T70njogin083mx/cWK3P0QMW6ASLFGN9/xU9181+SxH9xynhhugiCSHdMybw6/ElnledxQVfCGodLbjKfkPD1/EyJNMM5jJ+dKRjaYGmqTjEeJC2NRIh68gCke0c3J3Qi/fsow1/l73XMOJxV5E4RGyFzqO1dfXTROt8zrhCjz92CYr+CbPWBYDaDDvNQIFU/T0Tgx6hysyHOwTTIeGaLwxBlPn8V+Io8SZ+ceSpvtWK+fk7tKP9/5lH5BXolpnmOC9e90Z5ogiDirHMN5XWaV12usLPiVscb7BBjoCvj9VmOl9yCYGePpOu5zYvkRnqhjBBo/Ve9P7eZAmeRsYYKi7yKeNPOfGB2iQc7OPQwRYofuWccWMMpF8PfeB1Hizw0LnF7DonydGAmCIIgeUjttBNb26arz7LrK/Dx9lecu4xLPo2BsL4CBvgmpO0afO0B7jJWebm6gGIFyA42VJZlWgPCkPW6kxyJSYaqonpgkRoNogiIaPLHkBqNBXnoDfwYmuE9fkbsj7Zncd+CfqQZD/N+0+a4/pc11fT99dl62cb77Yl6vKMtnif9KgiCIwWHcPMdIc3XRaFOlZ4Kp0nelabHHZar23gjp+y8gAi3TV3uf5Ia6xFMJJvouRKSfg7HWwc8o/L7FUOnpREHUetTwEpokN0PGVZF7VDcn9wj8PARR314wxhYwxh381spcxzu6eY4XQGVgnLekzXV6wQzzDQsc1+ufz7vUssRtFf+KBNFHJOn/A0DjrSjaIBhhAAAAAElFTkSuQmCC;" vertex="1" parent="1">
          <mxGeometry x="40" y="630" width="190" height="190" as="geometry" />
        </mxCell>
        <mxCell id="3Tfccr52SiQmyFZQaD_a-22" value="" style="shape=image;verticalLabelPosition=bottom;labelBackgroundColor=default;verticalAlign=top;aspect=fixed;imageAspect=0;image=data:image/png,iVBORw0KGgoAAAANSUhEUgAAAgAAAAIACAYAAAD0eNT6AAAACXBIWXMAAA7DAAAOwwHHb6hkAAAAGXRFWHRTb2Z0d2FyZQB3d3cuaW5rc2NhcGUub3Jnm+48GgAAIABJREFUeJzsnXe8HUd5979zztWVLMtFttxtXME2rrjgRrEdekJJwdQADsEhhBJIIKEkXAIGQoD0hPKGGEhCsAFjAzZgE1nFwkW2mmXLlnQlWS7qvdx2dt4/zr1Xp8zuzszO7O45Z36fj+y9u8/ze2Z358zzPLPPzgoCAgLKj5tvrvKcI2YxNm0WlWgWklkQHQ3iUASHQ3QIiENAjv9jZl1RHg4IkNOBqcAUkDMOEEtatncCEci9IEdADCHkfhBjUNsNgBDb6/LRbqTYAXIrUmylwhZktBURbSOqbGV4xlauuWbI85UJCAiwhCi6AQEBPY/58w9BytOochKIE4DjkfIkJMchOBHkMcBRdeE2hw1CsU9rW0M2lTuVYy/IbQi2EslNCJ4BuQ4pn6TCeqrVJxkdfpIrr9tPQEBArggBQEBAHpi9cBZTamdDdCYVeRpSngbiVJCnAbPqQhYOVljqaW3LhhHCcWDRzr0JWA9yPYh1yOhJBOuoVh5n+tgTnHPdCAEBAU4RAoCAAJeYu/A4+mrnE8nzQJwJ8mwEZ4E8si7gyDFDgvNP0dPdVmb/Dmcb9Ns/BmIQokeBFQjxGKL2GCMHreBFr99NQECAFUIAEBBgg5tvrnL8KWcheAGSC4ALQF4AHF0X8Jw9Q4sDdRhYgOFjBQt7bdfGss1SPolgBfAYUi5HspD+XY9wyR+NEhAQkIgQAAQE6GD+w8cj5cUQXUxFXowUVwEz052cY8dslD1nsC2ycpg4fwuOpG0hR4GVIB9C8hCIhzik74HwGCEgoBkhAAgIaMXs2X1MnXkRUe0q4MXAVSCPPiBQCidnp6djO3vhX/J2psDIZFakaXsvUi6mIhaCXEilspCLn3gCMRARENCjCAFAQMDy5f3sGL6cSFyLkC8GLgN58AEBCwdViJNzFBTkV/hnx5GkZxYYbQU5DynuoTI2h0vXLQ0BQUAvIQQAAb0HKSvcu+RsJFdRkS9D8krg0C51cma2nRb+KTh8Fi5mD4x2I7kfwd1IcS99++8PtQQB3YwQAAT0BuY+fBRUXokQr0HwCtqq8h051VD4F7/tqvDPKHgx5Gje3gHMA+5BijlctnZRmCEI6CaEACCgOyGl4N5HLiaSr0HI1wCXApWOdnK5vfbnOLAwCows7TkJjFIDi40g70CIO6j1/5LL376LgIAORggAAroHN99c5fhzrkBGbwT5O8CJ9QMunZyJ87fgSNoOhX/qba9vRMTe1xpwH5KfIOXdXP6ehwgI6DCEACCgs7FgwUFEh7waWXkDRL9F0qt5wcnF61k9utC07aUmomG7HEshr0bIO4j4GfumzOGa68M3EAJKjxAABHQeli/vZ6t4ORX5ZqR8PXBIoU7Cm5MzcUQZbPd24V+ynl1Nx16kuJNK9H1G9/2MKz8SvnMQUEqEACCgMyBlhbmPXk1VvgUpfgc4ojROLtfCP0uOOL3cAyOHgQX4LVx00Wek3AP8hArf5/CRn/PcDw4TEFAShAAgoNyYv+JMZO0tIN4B8tQDB0riJJw6ORPnb8CRtB0K/+KPu2//PoT4GbL2XQ4+6hdhZcKAohECgIDyYcHyI6iJN487/csOHAhOzkmbJ5BLYOThmkM3LIW8DeStCG5m9+b/45qBMQICckYIAALKg3mPXQzcALwdmJ6Pk8vooELhn3q7Nwr/7Gy339cNSG6mIv8fl3xgGQEBOSEEAAHF4q7VhzFt5E0g/gQ4Pzi5hu3ucnLmHHHbXb0UsngI+AbTxf9wzp/sISDAI0IAEFAM5q+4BCk+API6YFp9Zx5OrgOcBJS1ul1PttcL/5L09AOjXSD+F1H7Fpf86f0EBHhACAAC8sPy5f1s6389MroBeFmobo/hyK3wLwNHEYEF+F0K2aj9Fvbs+8wKhLiJKcP/yQUf3URAgCOEACDAP+4ePIaptfci5R+BPA4I1e1J26HwT72vkwv/wEX7R4AfUan9Ixf/2X0EBGRECAAC/OHelaczJj6IiN4DHFTfGZxc1zq5sBRy/Lb7moiHIPonxIzvhS8WBtgiBAAB7jFv1cVI+SHgrSCrBw7k4eRMHJGF7VD4F68XCv/U235XidwA8usI+S9c8udbCAgwQAgAAtxhzurXIOQnQF51YKf3TKh526eT8xlYQHBySXphKWT19gHufUjxX1Sjf+SiP3+UgAANhAAgIBukFMxf/QYknwIuyt/J5eQklE6uQ5wElKm63dxebxb+6em131cJ4i5k7R+55KN3IpoEAgKaEAKAADtIWWH+mt9EygGQFzUcaPl/w3YnO7lOrm4PSyHHb/ssFgW/j7vS+8wjSPl3rDnlv7nuuhoBAS0IAUCAGaQUzF/zW0j5OWIX7onZDoV/6n2h8C9+OxT+qbfN+swggr9l175vhSWHAxoRAoAAfcxb/TIkXwQuPrDTy4Blvl2Yk3PgoDqy8G98OxT+qbfL2WfWgvwHDpv+tfBVwgAIAUCADuasuha4ESEubz5QAicBobo9yXbHOTmT+5rBdncU/llyyHUg/pbDpn8rBAK9jRAABMRj/uCZRPKzwBvbD+Y5YCVxe3QSvp1cR9VEKDhK7eRS9MJSyAAbgb+H4X/mkoF9BPQcQgAQ0I7Zj8+i0vcZBDcAfWqhEjgJCIV/cbY7ufAP/La/uwv/bGw/i+Qz7Bn5j1Aj0FsIAUDAASxcOIW9M9+HYAA4PF6w8AFrnDsPJ9eBTgI6fClkT9dcizujbZ99Bny3/wmQn+LiT/4gvD7YGwgBQEAd8wZfi5R/D5yeLtwtTi5tIM/IkbTds04u7bo44EjSC6tEqrdF0/YDUPkYF31iDgFdjRAA9DrmrboYKb4KvERPoQROAkLhX5LtUPin3i5dnzFx/p7aPLGtvq93Q+XPuPiTSwnoSoQAoFcxe+WJVCtfAN6GUT8ogZPr5MI/CNXtcduh8C+eI5eaCCXHGMhvIaLPcNHAMwR0FUIA0GtYuHAK+w7/MIi/Bg42Uy6Bk4BQ+BdnOxT+aXA7vuZGfd7Sns86Gv0+vxcZ/T1TDv4iF3x0LwFdgRAA9BLuGXwxVflvSM41Vw5OLh8nkcF2Rxf+OeAoIrCYvDaeAgvwW9Nh3meeQYiPc9Fff4eAjkcIAHoBC9YfwejopxHy/UDFjqQEmRCEwr8inERmJ2fi/C05kvRC4V/8tn37ZyN4PxcNhC8PdjBCANDNkFIwb/U7QXwFOCIDkf52cHLq7eDk4rd7qvDPwHb5i0VHEOIrVPfcyAVfDo8FOhAhAOhWzF5zCtXo68ArspOVYMAqbyakpxcK/9TbofAvnqO4wj/Dbfk0Qn6Ciz4bHgt0GEIA0G2QUjB/9XuQ4svAIQ4IU7ZzyITAr5PLtfDPkiNJLzg59bbPYlHIMTByfM2N+oyRvdmISngs0EEIAUA3Yfaas6jKb4G8wg1hSQasUPgXvx0K/+KP+2x/bxX+mdgepiK+zI7K57hmYIiAUiMEAN2AA1n/VzF+tS+RWLEdnFxpnFwnV7eHYtH4bZ91NKntz2j7wH1dDeLdXPTZsJpgiRECgE7H7DWnUJX/CfJqt8QlGbBC4V+8Xij8U2+Hwr94jnwfd0UI+f+oDH8kFAmWE5avhAUUDikF81bdQDVa5t75NxlK3tYKIXUGEJd6mhyJbfdsO6te6nUv6TWHhLaX/JqDpz6T03kr2+7QdnvwUkFyA9HUpSz61NUGhAE5IcwAdCLmrjwKKt8CfsuPgRJkQhAK/5L0QuGfejsU/sVzeK+JSOSQCL5Jf/+fcc7AHgJKgTAD0GmYt/plUFlCYc7fJ4eOk8jBtvtMyK1tp5lczve7qe0l6Wu6em3XvUOuORgGjI5tT7RAyhsYHl7K4k9cY2AswCPCDECn4I6VUzm48hkEH8Vr4FaCTAhC4Z9RhmvIkZrJebjm0NmFf+C3/d1R+KerJxHym/RPC7MBBSMEAJ2A2WvOohp9Hzjfr6Hg5HrayXVydXsoFo3X81ksClked61E8hYu/uJDBBSCEACUHXNXvQHETcBh/o31wIAVqtvj9UJ1u3o7rBIZz5F9JnAMKW7koml/gxiICMgVIQAoK2bP7qPynM8h+Bi53CeTwTA4ueDkDG33tpOL3w7FohO4m7Ho93nh320gIDeEAKCMWPD4CYz1fR+4Kh+DJRmwcl/vv0OcBITq9iTbxVa3Z7OdyxsRHq45+JgJ3ISU7+Tiv/s5AbkgBABlw9w1L4Xof4Fj8zPaA04u19f+HA+4YSnk+O3Oc3Ix3I4Di1wCIy/XXIL4Z6Idf84l3xglwCvCa4BlgZSCOas/BNHdlMr556Rn9NqfzzZbcLQNhjnazqqndBI52c7KITzb1nZyHmxn1cv82l9h5y0Q0QepHnovCz96eoqxgIwIMwBlwLx1M4nGvo3gtfkbL0EmBKG63TgwcnDNM2dyadfFAUeSXigWVW93ch0NNLZ/B1K+h4u+8gMCvCAEAEXj3jUXUot+ABQQ7ZbASUBnD1ih8C9eLxT+qbdD4V88h7rPfIPa7veHRwLuER4BFIk5q95ELVpAIc6/ETo/Vpd6DdByEhlsh7XbHXIY6Dlf7z/H83a24p8LDkO97lwl8gaqM37G8g8fYWA4QAMhACgKc1Z/CCH+BziomAZo/vi9LGvra+AxzYQy2jZe1tbAtvOaCF9OroD7bT3178C2kZ6LPuPQtjFHC6xm0hzZhpczzGIe+rOLU8gDDBAeAeSN5cv72XLQNxHyHcU1wuBHHKrb1fs6ubo9LIUcv+1zlUjwW9PRC0shC4aIxB9x0Ve/Q0BmhAAgTyxYfwRjoz/E6+d7deDSyZV0wAqFf/HbofBPvd3JhX/e2m9yXzPYNq3pEOKfeOKpj3DdLTUCrBECgLwwe9UZVMVPgTOLbUhwcsHJuW5zw3aobldvh2LReD3bPiPlL+gbeQvn//t2AqwQagDywNxVV1EVv6Zw598InQHLQq9tWwGvhX8yJaz1bDsrh3URl4v2Z7RdSOGfo/O2qokowTWHAgr/HJ53ljoawSup9T/Ikg+em9KggBiEAMA35q2+HsT/AbOKbor2D9e48C/ORh6DZQtHroV/lhxxekaFfxa2Q3V7Rj1LDieFfy44LPRyLRZNg1LvdCJ+zaIPvsaAKGAcIQDwhfrKfgNIvgX0F92c0mQEvqvbrTg09by8EWGrZ8jhdMU/X06uoPtdbHV7Ntu5rPjn6byNp/5jbc8AbmPxB29IEQ5oQagB8IGFC6ewf+ZNSN5adFMOQPWjMnVymhxJ26G6XX28k6vbQ7Fo/LbPOprU9me03XkLgEmk/DQX/ctnCdBCCABc446VUzm48j0Ev110Uw6gJANWKPyL1wuFf+rtUPgXz5HrB64sOeL0vL4REd1EbfSGsHJgOsIjAJf4xYaDmVH5abmcfyN0fvAZOZzraXJ4KfxzwaHj5Aq0nQrbPlPyaw5hlcgk2z4fd/kuFhXiXfT1/4z7PnBoimLPIwQArjBv3Uym7bkbeFnRTWmG5o/H95fPfFa3eyv88+XkHJ23jl6obrezbc0xDp+rRPo+7+5YJfLlTI3msfi9J6QY6GmEAMAFZq85Fjl2D0JcXnRTmlGSLMx3dbszPQWH78I/n05Ou/DP0naobs+gl4Ejc+FfBttZ9XIrFgUE50N1Hkvff1YKYc8iBABZMe+J06hGC4Dzi26KHuIy3JJmI2kcvqvbjTkM9Jy/EWGrZ8HR1mcc2w7V7R710gKjDrzmsWOBPBUZzWfJn1yWQtCTCAFAFsxZezZRdS5watFNaUdJMgJRoO2s5+3MyVnY1uJI0NMu7y3ZNQeNPpPRtk8n57uOxupxlyPbVnoN8P3lz3j1I5HRr1jy3mv1FHoHIQCwxbxVFyNqcxGU/BmTzoBV0mwkTS9zEVeB5+3NyeVw3j5XifR93mGVyHiO7v7y58FI8RMW/dHLU4h7CiEAsMGcwZcgxWxKsbqfCiXIhCb5M3I41TPgCNXtjvQMOXxXtxtzGOgVUiyaBts+49i2z8dd+n1mOkLcxpI/elVKA3oGIQAwxfw1lyPkT4FDim6KGiWJyn1P9/msbvedCYXq9pz0fDm5As7bep0IB7aN9Fz0GYe22zkOQorbWPzekr6qnS9CAGCCOStfQBTdQWmdvw58OjlN28YcLbK+q9ud6MVw+C788+nktB4XZbAdqtst9TJyZJoJzGg7kx62faYf5C0seu/b0g10N0IAoIt5gxcgqncBM4tuSjxKkhGE6nZHHIZ6Tt+IsNVz0Wc82O6+6vZ8bGfl8P3lT3uOKkJ+m0U3vDOFpKsRAgAdzF5zFshfgDyy6KaYw6eTs7CtxaHj5AqwrQ2fTs7SdtbzDqtExsOnk/NdR9PbX/6sIvgWi9/zBwaGuwohAEjD7DVn0Rfdg+SYopuSjJJkQqG6PQNHBtuhut2SI6PtsEpkPIfPL3+6q6OpAN9k0Xvek9LArkQIAJIwe9UZVGu/Kr/zb0SBUXnuhX8WHHF6vjOhUN3uQM+Cw3d1u8/zzr1YNA22fab017yC4Gss+cO3GDSoKxACgDjMX/0cquIuEMcX3ZR0+HJyJcrCvK33b6tXkkwIQnV7Lnq+nFxB5231FURHtrX1XPQZbdsVJN9m0bt/M0W5qxACABVmrzyRSMwGTim6KekoSUaQS+GfCw6FrO/q9sx6CRy+C/98Ojnfq0T2XnW7G9tZOaxnAh3YznbeU6iIW1h6/Ut1hLsBIQBoxdyVR1Gt/ArkaUU3xR62Tq6kGUGobnfAYaEXVomMR3mr29P1vL8RYaunweH7y59wELJyG0uuvyiFtCsQAoBGLFh/EFR+DDyv6KbooSQZQahud6ynyeG7ut3neYdVIuM5fD7u8l0s2h1f/jwMKr9g2R+ebUDSkQgBwARullVGR/4buLLoppjD54BVcCYUqtstOTLaDtXtdrat9Fz0GQe2rTnG4XuVSJ9f/mzvM7OIortY9K5TUox1NEIAMIFj1/w9gg5aHlLzR9Db7/km6/l0cr4zoVDdnlHPkqOzqtubkWuxaBps+0yutk9AVO5i+buONSDvKIQAAGDO6r8E+YGim6GPkmQEvqvbrTg09XJbCrnDMiEI1e3e9Xw5uQLPW2smsITXHJL7jJBnMCbuZOENh6U0oiMRAoC5q96M4PNFNyM7dJycBUfbtku9BA7vhX8uOGIHjeJsZz1v36tE+nRyvleJ7Nzq9oIK/1xwxI0FuV7zC+kbuYXZA30GRjsCvR0AzFt5NYibMBg6ikdJMoJQ3Z5Bz5eTK/E1h7BKZJJtn9XthRX+dcD91p0JFLycI9Z+LYW049C7AcD8lecgK7cCU4tuih1sBywDjjj4zoRCdbtDPQMO39XtVhyaeoUVi6bBts90wDUH/8Wi5fry57tZ8o4PGTSk9OjNAGDB4ycQVe4EDi+6KWZwEdWWPCr3/Z5vqG63s22l58vJ5Xzevqvbneq56DOObFtxNMD3KpFWM4Hiqyx512tTlDoGvRcAzF9xCLW+nwMnFd0UM5QkI+iO93z92Pbp5HxnQqG6PYNeBo5iqtvd6OVWLJoG2z5jZbsC8r9Z+q7z9NtXXvRWACClIJryLSTnFt0UN9CJakuUjaRx+K5uN+Yw0MtlKeQyZUIGtkN1u0c9L04uu+2seoUthax13ocgo5+w7C0d9JE4NXorAJg3+FfA7xXdDHOUJCMI1e12trU4EvR8V7f7PG/fq0T6dHK+V4ksvrrd3nbuhX8uOOLGAivbJxP1/ZSFN0w3UC4deicAmDf4WuDTRTcjG3QGrJJmI2l6obrdUs+Xkyv5NXfSZzLYzsrhe5VIn1/+LKTwr5S/sUuYsv8mZCe9RdaMatENyAXzB89EyjuAg4puijlKkAlN8mfkiNPznQmFtdvj9XzWdPiubvf5uKuTq9t9rxLp83GX72JR92ujnMOG82t8belcA9LSoPtnAOavOIRI/gjowJWcSpKF9cJ7vra2Q3V7Tnq+nFwB5+27ut2Znos+49C2MUcLfK0SKRhg8dtekaJUSnR3AFAv+vtP4PlFN8UPcsiEnHPkmAk504vh8F3459PJ+V4lMlS3W+pl5Mg0E5jRdiY9Ciz8y8xRocJ3WfyOEwwMlQLdHQDMGxwAfrfoZtihJBlBqG53xGGo530pZI/n7XuVSO+Ffx6vebmr25MpfH/5MzNHgp7/tVGOplL7AQtvmJJCVip0bwAwd+XrgU8V3Qy3yHvAcsGh4+QKsK0Nn07O0rYTJ1eQbS3Y9pkSX3Pwv0pk+PKnnW0rDuVYcDlT995oYLxwdGz1YiLmD55JJO+nI5/7g3bEbPVMS+rLpkb8GW37bH8st629Fg6r57gm9zUjR5Ke8bvtWfuMo2sOFn3GQNZ5nzG5rxltt3E7vOZg2GcM7TntMyb31YAjaVs06UmE+F3O++9b6QB03wzAwmemE0W30u3OPzNHip7vwj+fy9qGwr94vdIU/llwhMK/jHqWHB2/SqTHa94+EyiQ8j9Y8vunphCWAt0XAOzb9w8gzi66Gf7g08lp2jbmSMtWcrStrRfD0cmFf1p6GThK4eQs9Xqi8K/Ia+6iz9jaToNtn4nVm4kYu5UFbyz9a+fdFQDMXf27IN5TdDPsUZIfbij8c8RhqOe78M/nsradXPjnjCMGofDPI0cCCvko2iQu4JDKl3WFi0L3BAD3Dp4MfLPoZriHTydnYVuLQ8fJFWBbGz6dnKXtrOcdCv/i4dPJ+V4lMhT+eeJI0dPpM1K8j2VvuS6FtFB0RwAgZYUaNwEzi26KPUqSCYVlbTNwZLAdlrW15MhoO3weOp6jY778GXdfS9DXZPR1lr/xOSkkhaE7AoB5g58GeXXRzXCDAqPy3Av/LDic6Rly+F7W1pjDQK8QJ5cGn07Oke2serkXi6bBts94CGp8Pu7yXUdj9FE0DqdW+S5yoJS+tpSNMsI9gy8GPll0M7JBsyP6rm635tDQ8/2er88By3lNhC8nV8D97pjCPxd9xqFtY44WhMK/HDgUsKujeQnLVnwopUGFoLPXAZi3biZybBFwctFNsYdBh2r60Zt2RNW2jpNL0dPddvaectp1seRI2hZZ25xgW3swtLTnpM+kXZcMHKl9xsM1n4C3dS5w0GdM7qslRyy3x2ue2ucz2i7v2ijDiOoLOe97SykROnsGIBr7Dzra+cdB5wevqZe4bcthqBeWtXXAYaEXPg8dj46sbjdx/q5tu+BIc/5Z7OXQz7P1malEtW+Xbangzg0A5q7+YwS/XXQzsqEkP9xQ3e5YT5MjLGvrUM+AI3weOl6vlF/+TINOYOTZtg6H4EL6t3/cgNw7OvMRwOxVZ1AVS4DpRTclG2TL/2O2fS5r63NZ2NTB0IHtsKytejssaxvPEZa11eB2fM2N+oztWOaAw+i+GnLUt0cQ0aWc98NSPArovBkAKStUxX/QNc4/5Xh4zzdeL1S3O+Iw1Oup6naHtrPq9cwqkRa2fT7uclss2k8kSvMooPMCgPmD7wVeUnQzssHnD9eAw3d1uxWHpp7v6T6f1e1OayJ8ObmC7neobs+BQwGfq0T6Pu9OWyVScCFTtn8shTQXdNYjgHsHT6YmlwGHFN2UbFB1ElMnp8mRtB2q29XHO7m63Wd1OPitbvfeZzxd84nt3qxuT9ezDqY1bXfmI9JhkBdy/g9XUCA6awagFn2drnT+prIOOEJ1ewa9DBy+q9t96oVVIuM5ere63ZOeJkfnro0yFSG/hiw2Ce+cAGDO4LtBvLLoZriD7YBlwOFcT5MjVLc71DPg8F3dbsWhqRdWiYzn8Pm4y3cdTfjyZ4KOeCmP/M7btZvmAZ3xCGDu2uOgtpyOXusf0juJzg9ekyNp22d1u8/qcAjV7Um2Q3W7Brfja27UZyzs+VxAC3LqMx6uOXTL466t9I+exZk/2UIB6IwZAFn7Ol3v/H1y6Pzgc7Cd9bxzK/zLwJFZz5IjVLdn0MvA4bu6XYvDUi+3YtE02PYZj7Z9ro3S3GeOZGTKF9OV/KD8AcCc1W9D8Nqim+EHplGtJoczPUMO39XtxhwGer6n+3xWt/teJTJUt3vU8+XkCj7vXPqMrZ6LPuPU9vUsf/1lKeReUO4AYPbjsxB8tehmZEdJMgKjr1iVLCPwWvjngiNBT/tBW8muOfhfJdKnk/NdR2NV+OfItpVeA3Iv/HPBETcWdMg1j+8zFaLKvxbxxcC+vA0aodr3z8DRRTfDHXQGrBJHxrZOLopgLILRqL49MgaRhJFa/f9j0QE+CYzW2u0IoL/h99G4PbU6/v9K/V9/Va/NEwjV7Rk4MtgurPDPAYf14yJfTq5E99v3AmDGegYcxa2NcjHLFr0T+M8UBacobxHgvNUvQ3JX0c3IDpPB0LRDSX1ZV+/5SmBoFPaPwv6R+va+Edg/BsOjdac+Mlb//3ANhsfGHXyOENSDgv7xYGBqdTw4qML0Khw8BWb0wcF9MKMK1YmfgeNrnjoYOrjfYSlk9XYoFo3nCMWi8dvFro2yieEpz+OSW3aSE8o5A7B8eT9b+Zeim5Edph3HliNFz2S6rxbBniHYMwx7h+v/b/y3bxRkmu2CIYGhWv0fo+ny06v1YGB6HxzSB4dPgcP76/+mNcbILu6Vw/ttXMSVQ1/T5ci18M/xeftcJdKpnos+49C2MUcLfK8S6XNtFL0+czRTR/8K+POUhjhDOWcA5g5+AuSNRTcjOzQjxNyi2ob9+4dhxz7YNQS79h/Y3j2U/vvpJUyrwhH9cFgfzOyvBwdH9h147JB0/X2+wtXJmRD4fYXL5yqRyvtqwZHI7emag8cV/3DQZ0zuqyVHLLfHa57aZ5r2jVCR53DO7avIAeULAOavfg4RjwIHF92UbCjLgBXBznEHv2MvbN4DO/fVHX2APaZX4Zip9X+z+uGoKc2PEjp5WVufTiKzkzNxRBk44vTCsrbx2z4fd/XW2ijf57zb3kwOKF8AMHf1rcAbim6X/n1uAAAgAElEQVRGdmh2KNdR7e79sGUXbN4NW3bD1j31af0Av6iI8UCgH47thxOmwtS4xwe+nIQBR5KeTyfnc718KKAmwpAjODk72z5rOnIPjFL1JBVxOef8+AE8o1wBwJxV1yLEr4puRnaYdIwMnU9K2LobNuyADTvrjn9I45l3gAPE/HREw/9nTYETpsHxU+HYvnqQUPYBKxT+xeuFwr/47fC4S73PaiYQgF9z7m1XIdoPuER5AoCbZZVjBxcB5xXdlOzQ7FCmA5aUsGUnPLuj7vQ37YSxxlfmAvxB8VNp25Xwc+oT9ZmBE/vh5KlwSJXg5DrIyXVydXtYCjn+eCm//DmOinw959x+e/sBdyhPADBv9fuQ/GvRzcgOzU6k2zGGRmDDdli/GZ7aVn/VLsAzUrL7NDkdmZlVOG0qnDQVZqnWLShgwAqFf/HHQ+FfCreHaw69UvhHDB7h3BdcgBjw9gy3HAHA7DWHU41WArOKbko2OBqwtu6CJ7fAk5tg+14P7QxoRsbsXkdGxP4Bh1fhlKlwSl/9DQMgdydXykwoOLnudHJ59BmT+5qBI07P3auib+a8276fJJAF5QgA5q7+KvDhopuRHZqdqLVjywg2bod1m+HJzbA3VOj7gytnnyCX5OzTFA6vwvP64Yx+OKihZiAU/sVvh+r2+O1Q+KfWK1/hnxqCJ9i88xyuuWcsWdAOxQcA8544DVl9DOgvuinZYDFgbd0Fq56FtRvqq+oFOEYOU/lthzJyTRwWAo7rgzOnwMlToNqhmRD4dXI+X5vz7eR8BhZQUifnq88Y2vNZ0+F0oShAius5/8c3pQuao/gAYO7q7wG5vPPoF5qdaOceGHwWBjfAnv05ta1XUPLsPvFwgtx0AWdMqQcDh1Yox4BVAicBofBPi9vxNTfqMxb2ernwT401DB9zJpd8w3kBWLEBwL1rLqQWPUTZv0qYipQbPDYGT22BlU/Bs1sN7ntAPPLO7jMGDk2HLdskgJOq8PwpcELjWwRgPWAFJxfPEZxcCreHaw49WCyqAcE7Ofe275gp6dAWibmr7wZ+o9A2ZEbCjd68A1Y+DWueDa/rZUbBhXqmXJOHHQUOUH8sMIGjKnBuFU6ptqjmMWD5zIRcOrkMtkPhX/zxUPin1nM99d+MFZz7gnNcvxFQXAAwb9WrkOLOwuw7Q8tNjaK6w39sXf0Zf4AFyjiVryGXJbtXimnIzajA2RU4qw+mlMjJ+QwsIDi5pO1SOrmsgZGD+13KYlEDSHkd599+i52yGsUEAFIK5g4+jODCQuw7Q8ON3D8EK56EJ56CoeHimtSRCNm9lrNP4pkm4PxqPRjQKRgMhX/xHKG6PX47FP6p9/nN/iewmHNvuwiHqwMWEwDMG3wjUt5ciG2nkPW19x9bU3++H6b5NVDG7N5BoZ6JPS1nb2CvUWwacG4Fnl+BKhTi5Dq5uj0shRyvl2tg5PCaQ06Ff6YcNpC/xXm3/ywjySTyDwCkrDBvcBFwfu62XWLLDnhkEJ7cCNJZQNZl6MFCPaWYQ65Whx8nczBwoYAzxHiJbU6Z0Lj5jnQSRk4uLydhYDsU/mlwO77m1n3GGrM577ZrXRBBEQHAnNVvRfDfudt1he27YelKWLfB0f3sJnTqVL4jLvCb3dvwHAa8EDhxQi44ueDkLGyHYtEUblOODBDRCzn3Jw+6oOpLF3GIm2WVyuBfdaTj3LEHlqyEdc8Gxw+E7H5CzBWX0BQ1tLcLuBs4nnogMHPigO0g5WKgs9Qznvp3aDvreWs7OQ+2s+oZTf07tp2VQ6vPeLLtw/kDyMqHgLe7oMp3BmDOqncixE252syK3fth0QpY2+uOv1Oz+xIV6rXKuXb2ieKiXhPwfAkXyJg3BjJmYYUU/hlwJOlZF3Flbb+DzLeU1e2atn32GfBb05FP4Z8Ko8DpnHfb+qxE+c0A3CyriMFP5GYvK4ZHYOlqeHwd1Lx9jKmkCIV6+U/lG3ClisccqAHLBKwScFkEp0qcZUKJTS9jFtboJDzbTnRyGW3HXndH1yvVyXm0nZUjNjDKwbY/5w8wBSnfD/xFVqL8ZgDmrnoziO/lZs8WkYQVa2DJahjphU/vdvtUvqZcp2f3JlwTfz4ngssjmN4aCOSRyZk6OQ/Z58S2VSZnmz07yj4nEJZCjt/2WdORb+GfClvZ3X8SV96SaT35fGYApBTMG/x4LrayYMM2uP+R+vP+rkXI7ktXqNcq58PZq/BkFTZU4OIInjdmOR2r4i9JBqij53QaN+fzbrruHXTNwb6v6doWHs87c02EExzJocPXAd/OQpJPADB3zWsRJX7tb+8QLHys/py/q9Dt2X2XFOqZTuWnySnVYrhGBPy6CusEXDkGM4p0cgrk5uTS4NPJebCdSQ8HTq7A87Yu/HNgO89AQIr3kTEAyOcRwNzV9wGX5WLLBFLCinXw8ONdsoiPq+xex9k74Jo83O1T+Q1yeWX3NlxTJFwxCqfV0M6QrDI5g6nZsKxtDLfHa556bTLaLqTPOLjmmfqML8hLOe/2hbba/mcA5q7+Dcro/HfshgWPwObtRbfEEmEqvy4WsvtM17Nx95iAeVPhyTG4chj6Qc9JqOBgUPT5ClfqJctoO9HJebZtrNfCkerkPNq24tAJGHOwnbvzB6j8MfBuW23/MwBzB+8E+SrvdnQRSVi2Cpat7qDq/ryn8h1wTR7u9uxex9lbcMWqZLieJv3lkAheOgxHNs6MZc3kTDJcBxxJelaZnG327Cj7nEAo/Ivf7u7CPxX2Mm3keJ57p9WX5/zOAMxedS7IV3q1YYKde2DeEti6s+iWpCBk96FQLwNX7G4Drt1VuGM6XDwMZ4/QVlTVRlWSDFBHT3kZCs66dTmc1ES44LDQc9ZndIKXNHRqxt+Ggxme8ibgmzbKfgOAivgwedUZJEECK9fDg4/B2FjRrWlB3tm9I8eqnd13+1S+BVesSk7ZvY6MoP67WTgVNlfhqn3jo4XrwdKXk7O0bczRAqvn245sa+ulBUYdds3BcFbEwrbV466cIMX1WAYA/pzzvauOpibWUf8+WXEYHoV5i+DpLYU24wByGrxdcU0eznsqX9dmD2b3RcwGzazBNXthRmTp5Aymd0u5drumnta1sbRtXfinaTsxAMhoO1OfMbmvGTji9KweF+WMCudwzm2Pmqv5Qq3yfop2/lt3wk/vLdD5i/Z/bbsUMlpcqt1CwWfA1XRYtPBpnp9STLTw2XJNXMPGfxbn1yrTyNXmDC2up1LF4PxaZdp22dxjVZ8x6C/b++Cnh8KzSZOGDgbIUq7drqmn7eQ82M7KkerkPNrOque1z7jU84iI623UdFMHM8xeM41qtB6Y5YVfByvWwsIVORf6ucrWEmR0sjUTe0JDxsReKNTT5ImRs+ovCXKu+0tFwiX74eyh8R15ZM+OMt9UJ5fBdiK3g8w399f+HM42aAdGlrZ9Fi5a9ZlCsIHH+k/kuluM3mf3UwNQrb0ZRDHOf6wGC5bBmmc8G+rAwVu0bdhzgaazN7DnxNk3yGV29go5a4evc48zcjUdcnRvWgNEKeDBg+tFgpfuMRwgVcgp81WeZofMNjS13YNt5T3U0NOx3XbdHV8v5+v92+oV6vwBjuWskWuof/tTG34CACn+xNPcQjJ27oF7FtXf8XeKLhm8bXkmxUJ2n392X9LZoBUHwb4KvHg3VOMGP59OLg05BiS+nZzP884cwGWwnVXPSZ/RmRVJQ+HOvw4h3oJhAODeTc9fczlR9GvnvGlY+yzcu9TRin6dOng74oIeyO51nL0ll3JXl84GHT0K1+6E/olHbZbTu6HwL4Y7w3nr2Pby6KKR29M1B499Ju26JG0Xih1MGzmW5945rKvgvggwit7vnDMNjwzC3EWWzl+0/1PsUuzQ4FIdEvgr1FNxKU9GISYIhXoG59cq46S/iJhDefYXzbZP8Gzuh5/PhL1V7DO5Dsw+J6Dt5DzYzsSh4+Q82rbSa0DuhX86HIXjcPZPfbWJgtsA4O7BY4Dfc8qZBCnhvuXw0AqD+2AzeBs61tbB23jAFYrDrQ7aweCd6PANHGurs28TNbyerVwiRk7b2YsYNUvH2nY6BtfKuL9Y3JtWrqxvcqT1l5198PMj6nUBbdDJnlVwkXnZOjlHtrPqlbK6XZNDFGg7q55VnykJhHyzibjbAKBf/gEw1SlnHGoRzF0Mj69LEFIMbmHwNju/Vpk2vgxccQ7a5PxUckoVHa4YmbZdNv1F1Wd0+ouGPWV/seh7k2IW/WVfFX4xqx4MlCXzVTbdoW1hymFgO+6ye3VyaShJ1p1L4Z9rjtzwm6y5Wvv1e3cBgJSCDB8lMMLwCPzy/pbP93b74K3ZdmdT+eNyxs4+xfHkkt0bnF9af9EKEHX6C5b3WMQcbu0zmufXJtJ6jzNw7a/CXUfCjinjO0ycXIkyQB2OtktQgqxbV0+ojju0LSz1dGwb9xlD28prk8ZRKsxg72Ev1xV2FwDMXX0NcLozvjjs3g933gebduBm8FYpqnYXPXgr5HLP7g2vp5Gz13CsTqfyFVxZ+0vTodb+YnlvlP1F41rpOnytNiXYa+0vQ1W4exbsaHzBqIAsTKiO550BWuo1Xe6SZN26HKJA25n0cNxnCoTkt3VF3QUAQvyhM644bNsFdyyAnXvHbbb8s3UEbYd6dPA2Pb9WGaM6AA17SpUMTtpbf0HjHmu0vbW/dGqtx1AV7j56/HFAHF2HZfyNEAXazqonGrbztp2Vo5SrRJYSr2P21Vqv+LsJABasPwL0ow4rbNsFdz1Qn/6fGCh1HV3XDt6aXCaDt65D7LXsPrG/WDjWVq6Omw1K4Rqq1IOAvY2FgY1TxGnw6eQ82rbSa0Apq9s1bYsCbRvrtXBk7jOlwpHMOvxFOoJuAoDa8Nvxue7/tl1w14MwPEYpBu9JEUeDNy1cHZXdWzpWpYrB+bXKtO2yaJOyz+j0Fw17yv6SwUk76y/jcsb9JeXeCAFDffCro+szAnllvsq2O7QtLPV0tuNuj6vrJWL2m3A41TPgcF74l0dgUSCkfJ2OmJsAIBLXO+FRYdL5j7Yc0Bm88TN4d+rUrMngrZ3dx7Spja9VzeD80py91+xeh0fEHLbpL6r+p9NfEs6vVSY1uze8nkn9ZXc//N8xMFw9oKJEB2S+bW0vQdatq6e87g5tCx09T7a19BI4hGp/ml7JIdBaDyD256iNuSufD5XlmXlUaHL+cc409o8YpMiItg17LkgYrC24UA3WNjwNconiFtcgViXD9VQ6KEuupkOO7o3QkDGxp9VnDGSc9Bmh3NTmOXoIfmMDVBs/zpU2mBtmcplX/Eux3ebkHLRZye2wzRPbSifnqP1a1yWD7VKuEtkBkH2nc/4PB5NEHMwAVN6ZnUOBbbvhroUN0/7jiM3ULLMiZaam4tLMigqfmk2R6bRCvVDrkd6mRrlCaz0SeDYdBAuOahhDS5QB6nCIAm1n0qPh1nTYNQfKuUpkh6Ay9qpUkUwGpKwAb83EocLOvfXMf2S0CwZvTa62wVvkPHhrOJ5QqGd2fm0ijvuLyuFn4VL1GZPzU8k1/vnkDFh2RIweZBqoRcO2LYc3PV9OzkXWmlFPFGg7K0dqn+lwSJn6GCDuV6yHeatfhuSuTBytGBqBnz8Au/dpCKc0X2jI6PBMirniEpqihvZixXVvs8IBWnHFyLTtzng92xxUBq7Jw5bXSinisO9NONPMXDr9xYIrVkUhc8VGOHXX+A4H07s+Pwoz0WYf0/ITcPo9+xYOo8DIwnbstXFwvaw/hKQp23ZtXMw2lAp7mTZyZNLHgbJ9DjgSv998kzJirAb3LI5x/mHwLnzwNrFn5ewT5Lw4e0dcoNlfDOw56S8Ncrn0Fw0uCdx3LEwfhWP2tRxQbceRmGzbcqA4Hce2fVa3K2+Fw+uVGBh5tp2VQxkYpel1HA5m/7TLgTlxAvaPAO5YORUhX2+t3wopYe4S2Ny6wp9iunFyd8OUZZmmZlOn8g24mqZmVeIa56eSU6pY8DQ6mKZdGbiaDjXeXxMu1eHW/qLi0ryezmo9Gu+v6/4iYsR99RdNrgiYfzzsnaKQNRzglSbznpK25Ghqe862s+q1XXfHto0SyyLvd8kh5DVJh+0DgBni1cBh1vqtePBxeHornTV4j8sZD94pbe/K1/ASZFq5OrLWI0N/aRM1vDedWOsx3AdzT4SaoFQZfyNEgba19dICoxJl3bp6vleJjOu6xjY6Ab4CAIS7z/4uWwOPrx+n5cAgEQr1NLgKGLytuFS7hYJPo03Kwzb9RbPPmJyfSqaTCvVi+4vBvWnbFcOzfSo8dEwDn+HgO0nVQY55Ah1Z+DcOUaDtTBxxU//d4OhjcRkLXzs97qBdDcDsNdMgeq11kxqxdgMsXZ0w0E4g7fiEmI6cgUyqqKG9WHHN81M5QCuuOOfnkKvtkIN7IzRkTOyFWg9Nnhg5q/7SILdqJszaD6ftaDim83zbs3NPdHJpKNg5Wjm5ksx05L4Uctc/BphKf+VK4G7VQbsAoFp7FYhDs7QKgB174b7HYq51GLz1Bm9LLuWujI7Vi7N3xAWa/cXAnpP+0iCXub8o5DohQFx4HByxHw4fSuDI0UG1NdexbaPCP9N2eNYzDoxKNNOhDIx6AIKrcRoACPHGzNdwtAbzltYr/4sYvLVEQ3avl907ujfa2X23zwZZcMWq5J3dW8wG1QTMPwleOQhTxhpk0p5vN6JDpqSb2l6kk7OwZxUYGdguTeFflwUIUlwRd0h3dDiA5cv72TptE1kKACUwbxk8uSleJmT3mjwxch0xle+IC3ogu++B2aAztsGlT43/nTA4p05xS83jcdwWerq2S7msraae1rWxtG39zr+m7cQ+08XOv449PNZ/ONfdUms9YD4DsOWgqxEyW/X/o2ubnX8YvO25lLscXM+Q3dtzJYp3+2xQBq5VR8Axu+E5OzXUOiTjb0Qpl7XVtK0dGHmwnYlDJ2DseszgnNHzgMWtB8wDACHfkKkpG7fDkjUaA3gZB28LrliVbs/uHQZ1YTbInku5q4DsXuuwgIUnwax9MH1kfF8ejsYkw/VkOyuHlZNzZDurXij884+IK1AEAGavAUopAPvq//3DMH85SNWFFi3/VBCEd6gNz69VppWrbK/hhUWZDLhiZNp2Wfa9tkM6/UXDnrK/jMuNVOGBkxRjsU8np26mMUeSXscU/ik4RIG2jTl0pv57EVJZB2A2AzBn8BIqnGjdhvtX1Nf6T/61jUM0/S9VTlcmVlyHRyEX61AMeWJ3Z+BqOmR5fsrDGdvUJOaQa8KZZubS6S8WXLEqGe6Nt/7igGvysOH5bTgUBo+E07ekmCk469bVa2q7B9vaTq4kGb91YFTk/e54XKLaaTYDUBWvsza/6hl4ehv62ZpK1DAr6soV9RLa3srlZEW9Bq6wKFMKl05/MTi/Nr7WXT77i+W9se4vLXKLT4B9/eN/eHYSbU0sQdatyyFUxx3aFjoclrabrruHax7X9RI5uhbPY8krDm7dafoI4DVWpvcMwcOrGnb04OCtVM3A1XTI5+Ctca3i7Fk5+wR7XbuiXkzbvfUXLPuLUBxuvceWfY8WrrE+eODk+tg8Kd4hGX8jfC9rm1kvLTDqwGsODvpM16FK5aALWnfqPwKYu/Io4EJjs1LCgkdhLEpwAhA/cMTIJIobcsWq6PDEyLXtsmhT7KGMXJOHM5xfm4iDNjXKpYoatj2X/mLJpdyV8d546S+OuECvv2w8FNYeCadtSRDKOMB7d3JpyGA71cl5tG2l14BSLoXc5RC8AFjQuEs/ABDi1UiLbwc8+iRs2dWyMwzeiXLdMHib2nPi8HUCRMu2WweIOvc4I1fTIUf3RjtA1LRnGyAuPglO2AFTRxt2ljn71Hm+XdKMv/F4YmDk2XZWvcyBUZdCyhe07jIoAhSvNDa4fQ88spYweKfIFDZ4a8qVMrsPs0FOuJoOlzBAHJkCS0+CSwfHdzjMur04ORq4M3Ik6SmdXBpKMtORS+Gfa45uQKUtANDL6KWsIHm5kS0p4cGV0Lb2END4LDAU6hnyKJxVI1fHvYZneD17ptZDdai1v1jeG2V/0bhWcfZ813qsOQo2HxLDC1bZZ5v5EmTdunpCddyhbWGp58J2Vj3ltUnj6BXIs5EDTT5fLwCYM3gxcJSRrVXPNkz9Jwy4kzB0BJN8KpWiB2+hONSjg7fp+bXKGL0VomFPq78Y3Js2VYNrldhf0LjHGm1v7S+5vMlhcD113vyRAh46tWXMLnHm23QOJcm6dTmEZ9vevuJIw3UPGX8MDuKRxac27tB7BFDhZUZmhkZg8doEhwLxg0KCTKxD0UGMMzXmSpARsX+Yc00eznB+bSIO2tQolypq2PZEcVf9xZJLuSvjvfHSXxxxgWZ/MbCXpb/snA6rjoHnbiBz9pnJyRWc+WZ2cgWedyj8KwHE2cDqib/0AgDBNUbXbNEgjDV+1SsM3lpy2g5f054zh6/joA25EsUtr6d1gKhzjzNyNR3Ku79oypUyQGyQWf4cOHkL9I/GiwOFZt25F/654Iib+i/xLEsrR2pgFFBH7WzgpxN/pQcAy5f3s5Urtfk37oC1m0n/cXfq4O2Aa/JwDw3euWT3ec8GJcgVn91vA/kYiNUgBkE+iRCbkWymVt2MqI3SP7pnUkVOPQQh+ojkVGpjMxCVY6lwEnA8kpOgchLI84EjlfbymA0a6YNHT4QL10w0uuGgLydXomfdVk6uJFm388K/PAKLLoQQz2/8Mz0A2D7thUDbCkJKRBE8uEpxoNuz+x6emlXJZXb2CrmOCRALmQ2KQD4M4lfAr5G1xXzlN9dpNmQC27WkPvKLk6hwIZXqhSAvAV6K8tPgnmaDVh0Pp2+AQ/Y37NQc7NtsOM66fVa3K6+PQ+fYFhiloUQzHcrAKE2vRyE5q/HP9AAg4lpt8pXPwu79hMFbl6vbp/ItuGJV8s7uSz8btBLBr4C7GWM2f//qbZoE2fDVV64H1gM/AWBgdh97Ry9DiJeDeAXwQqDaruiov0QClp4CVz2a0tCcM9+mZpck69bVS5wVcWDbSeFfWmAUMn49yNMb/0ofdeYOzgZ5darc6BjcvrD+/zZ0++DtiAt6ILsPs0HWXIKNIP8HyU18+dVLNQjyxyfuPoYx3oQQb0VyGZDxHivkBHDtYjhyF9rOw8rJqbZ1nJyBns62yMqRclzr2ljaNl4K2dB2YgAQAgElpo0cxnPv3AVpv8CFC6ewb+ZO4KBU0iVr4LGnx/8oyeDddChk98ZcieLdPpXvgGvycKa+Nwz8FMS3mdF/JwPXqCLscuKjv3wu1erbkLwHON7pbNBRO+DqJWR3cg4clLWTMwleMnLE6WUKjEyCFxdtbuEwyv5DADAJUbmQc29dAmm/yPlrLieKfp1KuHcY7ngYalGSVY1dXTd4t4g4DBycZffdPpWfIFem7L4Vo2MrGBu6mdq+f+Vr79ikQVheDNzcz74j34TgwyAaViPLOBv00sVw9I7xP4KTs7LtPDAymRXJaLvt2gTnr4nf4bzbboW0GgAZ6VX/P7Kuxfn3+OANms7ewJ4WXcjuO3o2SMqd7Ng2yPbNP2PjM1/i3i/t1lMsOQauGwG+C3yXj91zDUJ+HHh55gDxkdPh2odIHOzb6FxkizpOLkXPhe2seomBkWfbWTmUgVGaXkAd4rSJrZQAgCtSubbvhbVbSXcGXT54h+xekydGrldngySS3Tu3s+HpKeza9nmm7fhH7vznYU1DnYcvXT0bmM1fzn4Z8EUQF6crxfSXbYfChiPh2ImvBbrIAA04mprlwbaVk9O0bRUYGdhOLfzzaDs4/WRIeerEZnoAkDaWPbKe5s4K5Ry8HXFBAdm9ob1cnL0ll3JX3rNBGnK+A8RaJNmyQbDh2YihvTcjo79m3hc265F1Ab54zd0gL+Uv57wZ+BwwnpUYzgY9ekpDAKASKVnWrcthNPXv2HZWPeOpf0PbiT+5EAikQnD8xGZ8ADBn7amI2gmJRDv3wbPbCdm9ob3csvu8p/Jj5Ho1u1dhdBQ2PQMbnhGMjd0L4o+Ze+MyTeNdBiH5It9jYPatDFX+Evg40G/UX7YdBptmwtGNb0HmkH1ar/jnwHbWzFc7MPJgOxNH3KxIcPRGkDoBgBi7LHWwW/5UzLXv0sHbhGdCLmT3GjwJct0yG7R/Hzy1HrZtBqIhkAMcs/LL3HKL8nuZPYWBa4aAAf5yzm0I/oOmQsE4NFz3Fac2BAA6z7dLmPE3HrdyciWZ6ch9KeTwGMAYgsnEPv5rgIJLEkl27YOntk0KN/9T7Rakfw2v9bjCWTVyZf30LS1cWT99SwtXbCatyUULV5szNORCxKjocMXItO2yaJOyz+j0Fw17yv5i0fcmxQz7y9B+WLkCli6ErRuB6D5q4kLmfv5vg/NvwRdfuoip0QuRfAJoeN0xpb9sPgK2H9q8LxY+nVwaSpB1JwZGnm0bc9jWRASk4NiJzwLH/1TmrroHxEtjj9+3Cta1PHtrc1BpSJERGjIm9kqZ3QvlZmauWJUM17NtV8br6aW/OOICzf4SwzW0H55eB5s3Uh+whAS+wLFP/HVw/Br4+NyrQHwPOGlyX1J/OX4TXLGo4ZBJRmwg28RtmnVr2FY6uYxtjuV21OYJGD37t22/i5mOACqjx3HOHRvUjwCkrDBvMH4abs8QrN/idsAt0+CtknHi7BvkcnH2llzKXQ6up9E91pDTDhA17bkIEEeGYf1a2LIB5ORAtAvEO5n3uR/rNSSAL7zkXgZmX8RI33eAV6de92ePgr3TYca+lgMlyLp1ObSdvwfbWfWabo8H27pDRnD+mug/FtigfgQwd92ZwKHKYwBPbADZ4VOzafZym8q34ELEqGheK5VM2y4bHhFzKO0ea7S9tb8YPf5RibTe4wx9DwGRhKfXwpL7YWa+B14AACAASURBVPOzjc7/CaLqlcH5W2Dgmi18/kW/CZUB2kb2lvsiK7Dy5PFjvpxcSZ6z23CIAm1n1XMaGAUAMFb/qqc6ABBR/Lu5o2Pjn/ttUlD8az1c4sG71dmnOuiUtrdyCYWMThDSxKdSsXTSbbsMz8/I2Vvcm1aurLUeWv0l4fxUMo1cO7bUHf/6tc0LYklmM9J/Kfd+dnkMWUAqhOTzV30GKd4JYiT+HgPrT4TRxknNkmf8jcdTnZxH21Z6Dci98E+HIyARlaQAABkfAAxugTFJ8oCLu8GbFq5QqJfAFSPTtsvG2ascvo6z17Cn7C8Z7rOz2aBxubgAce9ueORhWLEMhodaFX9MX/9ruH9gVwxxgAm+cNV3qfBqYGdbf5noM6N9sPYkhbIDB1XK6nZNDlGg7ax6mQOjgBgkBQCcp9wrJaze2Lwv7seohMXgXYrsPsHZJzr8mDa18bWqGZxfmrP3mt3r8IiYwzb9RSHnOrtv41PI1CJY8wQsexB271ARfY1jV/4e9wy0RQUBGfC5q/4Pqi8BsUEtIGDw5PHHkw4dVFx38erk0lCSrNv5UsgGtkNQYA8RHQnx6wCoA4Bnd9Y//OOqmr7rC/UUckq1DNdTGdBYcjUdcnRvhIaMiT1nb3Lo3GOFwI5tMPiYKuOfwN8x7/Mf02hAgA0+f/lSPjX/amTlHhDHth3fMx22zISjto7vKHnmq3T+Dm0LSz0d200/DQ/XSzswCs7fGFHcDMC9q44GjlYqrdpIaoZskt2rhTS4GrPnuExNxZUi47xQTyjUNK+Vs+w+QaaVq9sL9bLMBo2Owsrl8OiiJOf/78z7/F/EHQxwhM+96HFk5ZXA1qb9E/d27XMUSpYOyreT04YFR5vz76D6AqPAKMAYFXE4qAKAmlBn/3uGYdPE40xXg7cmV9bBWyUXCvXMzk/p7Bu4urnWY+smWHwfbI6Zea7jv5jX/37CyJQPPn/5Uiry5Qixva2/PHMcjEyhlBl/4/HMTq7A+gKvNRG2HAH6EAeDugZAHQCs3cKBV/9UfDaDd4LjCYV65m1Kcvi2gUPT4VZnn8FJlym7V8kIATKCtY/D48tgdCTGNgC3Ue2/HgaiJKEAx/jslYuQvA5Ew9cTBdT64KnGz5hYOoxSVrdr2hYF2jbWa+FIDYwCsiOaAaoAQHBu2z4pYV3DbFsnDN7eC/UsuZSnY3CtdJx92bL7Igr1TK6nqr/s3QNLH4BnnozRnaRYzEEjb+OegbFkwQAvuPHy+QhuaLvPa05RCBec8TduWzm5kmTdzgv/8ggsApog42YAJGe37duwG/aP5jR4G3DFOehYHl2Hr1LR4YqRadtl4+xVDl/H2WvYUzp7i8BhUszG2SfYy7XWA3h2ff29/r17YrgmsYmxyhv45Zf3pgkGeMRnL/sOQn6x/sf4vd11GOw4HOvM12d1u7KLOnSOQkfPk20tvQQOZWCUphdggdhHAM9r29O65r+JYzUevFMcTy7ZvWXgoFTNEDi0HUpz0Bptb3X2uRTqaXKp+kubqOG9MekvY6Pw2CIYXFGf/k/GKHAdC25clyYYkAOql30SUflx0/1de3LDHwbOqqmPlCTrdl74Z2lbeDxvpfMPGb8nKAKABeuPAGY17RsZg2d2Yj54qxy+x8Fbx7F2XaGeRttbHb5t4DApZuPsE+5NWWo99u6GxffDttZgNwZS/inzvjBHTzjAOwZERLXvehDrJu/vUydBrZqgVEDmm9nJFVhfYF0T4cB2CARcYzq0BgDRWHv2//SO+jrnTSjZ4B0np+XsNQKHCZm2XZaBg/JQRq7Jw60O2jJwQMHVrbUemzfWn/cP74+Ra8NPmf/Ff9cVDsgJAy/YQSTeDtS/tjg6BTYeSz5OrgT1BaJA21k5UgOjAMeYAq0BQK12ZpvY+h24G7wb5EKhXgqXjrNv4OrFQj1brklOCetXwxNLIdL+Qu9mqmPvIYxO5cSNl8xH8LnJPvPMiQ0HC866rZxcSbJuo5oIx7ZDUOADVWhdCVC0PP8fGYMtu2PG07hBNkYmVlyHRyHnok2JuzNwNR2yPD/l4YxtahJzyIXKwdtw6fQXCy6VytgoPL4Etm/FDJV3c8/fJS4IEFAwKns+RzTjFSCuYMOx9ccA1bgAz2fhXyO3LYemnnDA4UzPkEMZGKXpBWREH7TOAAjOaPr76R3j11wnw2rNxnWzNRVaMzWhULPM+pSqhudnlN3rtEnhrBq5Sl2op3L+hvcm71qPkWFY9gBs13zePwEpb2L+jT8xUwrIHQPXjFHhBhCjjE2BTRqPAZq6VUmybqPCP4+2Uwv/PNoOTt8XFAGAFCc3/f3URPGfCgUN3jaONTV40OFSHWp19paOVensNa6VrsPXalOCvW6q9di3p76q397dMdyx2E5FhDX+OwUDlz4C4p8AeOakBi9SQOYrVMc7pL5AqyYig+24n7ixjQBD9E3+ZxKCUyav80gNNu+ePNAgk4DEg2qZWIeigxhnasyVINPmoDJwTR7OcH5tIg7a1CiXKmpoL5f+osm1eyc8shDGRvQvySTkp5j3xc2mWgEFohL9NbLyuzx7/InUqn2xjwFKWd2uaVsUaDsTRyj8KxhVaJwBWLD+IGTDR4A27uZAtoZlttaaqelmayoo7LXtsswglbuFgk+jTcrDooVP8/zaRET7P5Pza5VJnco34Iq7xybnp5LT6i8a92brJlh6X935m+Nhjlv9dRvFgAIxcMk+JH9ObUqf1mOAJjjKfK2cXIEZv1ZNRJH1BQGOMASNAcBo7RQaR9JndzXIFjx4T8i07bIMHNoO6Th7DXtKZ5/BSTubyh+XM3b2KfemU2o9Nq6HRx+GyHKp/krlA9xyi/ZrAgElwt9c9EME97P+1O0HdtoW/jWiBFm3KNC2MYdt4V+AJwxB4yOAytjJ9Y/9AFLCpvEZgFiIxD8TdurJte3KwNW2W4crRUa0bdhzQYKDt+CaCL4y8zTIJYpbXINYFcvrGddfNqyHlY9gPdAI7mDujQvslANKgUh8mk3H/wgpmh1+U5/xkHVrOzkL22393WfhX5EZfwgQPGEYmosAD3xEe+veeg1AE1qztZZdKhklYjK61MzPgKvpUGs2bpmRN3KFQj0zLu3+YnBvdPrLs0/CymX1gNYa0WcyKAeUAX9z4S+QlUVsP3Ikt8xX6fw7ZLbBODAytK2bewTn7w+i9RFAJI6f3N64h3ZnQMqAm2HwLuVreK0O2jJwQMGldPgG19PJokwJzj7R4ce0KbW/WHKpgged/vLMWgfOn58y70sPZCEIKAkkn2L9Gasm//Zd3Z5ZL4FDFGg7q57TwCjAGrI1ABDyQACwZW+xg3eSvURnb+FYW7myFurRwpW1UE/l8LNwqRy06fml3WNtrhiZtl2GbXp6DaxaTubBRIbsv2sw8IJ72HHEan2FvAv/HNm20mtA7oV/OhwBziHZD02vAY7PAIxFsH0/8QPtpLzm7jSeFJk2B5WBa/KwDo+mXHgNT5MnRs51f9m0HlY/Snbnz1zu/dLCbCQBpcLuQ3/A8LRrmLZ/xoGdHZDxNx4XBdrOqpc5MApwBiE3Q1MNwHgAsHlPzD3RyNS6PbsPK+qZnZ+P7D7pHm/bWF/e18mgIv/VAUlAmRBN/V+2HrtYfTDvwj8PtrX1YjhyKfxzzRFgiY3QFADI4wDYsg+/g7fK4es4ew17SmdvEThMitk4+wR7uRXqWXCh6+wN7k2bqsG1SuwvtN/jHVvh0YVZn/lPYAND2291QRRQIgycM0Jl9M4DOxw7OaXzd+jchaWeju2mn6LPwj8TjgB/EA0BwM2yChwFwNZ948db/3kcvNUNTLbX6uxzKdTT5FI5+1QHnWKv7Nm9VX9JsJfYX1q49uyE5Q/Yv+ffCim+wUPfGHVDFlAqHLrjv4CoNFl3LoV/GW1n0sMwMArIB3ITTAQAR6yZBVSJJOwaynfwTuNqOmzj7DUdvjVXq4MWMSYNr0FpXsOLkWnbZRk4tB0y7C/798Gy++pf93MDiax8yxVZQMnwooEngV+rDxZZ3V5gfYHXwj9bjgC/qDwLE0WAVTETJOwcgtgkKm4gbj2UIKcrIzRkTOyFQj1Nnhi5tl0Z742r/jI2Csvvr3/dzx0eYMGN61wSBpQMQv4QyVX1P0qa8TceFwXaNtZr4UgNjAIKQsMMQKV2BADbhxqOu8ruU7LMVq5QqKfPZZTda/CULbuPvcfj/1Y8ZPNVv2RI8QO3hAGlQ8SPAFlsdXtJsm7nhX95BBYB2SFXw2QRYGUW0PD6n+/Bu9XZWwQOk2I2zl7X4VucX6uM80I9lcO3DByUqjpcOs4ejXus0fbW/jLBt2oZbN0Yw5kBQv7IPWlAqXDRV9YBMa942hb+ZeBIkhU6ep5sa+klcCgDozS9gBywl3Nvewom1wGIZoKAHfsbblrcgN2IFBmXXJDg4C24iHPwpjwNconiFtcgVsXyeioDEB3EBV+mXI76y7NPwlOrNW2aQCxk/hcGHZMGlBH1xwCX1v8oaebb5vwd2xYez1vp/EPGXxKsRNRvwIEZgLEI9o5hnEG2HW7J1EqR3bdm43HO3zCL7tlCPWifKdDhUh3W6S8NXDu2wuOLYmQy4+e+iANKBhHdVd8osrq9wPoC68I/B7ZDIFA0Hp/YqM8AVDicLftpfodaJ1tzmJGHQj17LuWuDs3uk2RGhuHRB0BG+qdnBDnHB2tACbHt8KUcvmsPMKP9YJHPunUK/0peX5AaGAUUCiGfmNgcnwGQh7BjmNhsrTHr68hCPQOupuxeJd7t2X1rNu47u9e8ngJ49H4YHlIfz44R9k8Ln/3tFVwzMIaUDR96yqO6vSRZt1Hhn2PbISgoHpFYMbE58S2AGexpeJUqZPf2XLEqGa6nVXafIOMlu/fcXwaXw/YtmjascD8PDezzaSCgZKiIe5HyWuPMV9mFfRb+lTzjb9xWBkZpegG5QsqHJjbrAYAUM9gzquGoXTl7TS5nzr5BLhdnb8ml3OXgegoNGROb2g5f015an9m+CdY+niyTHXN9GwgoG2r3Nq2GHou8C/882k4t/PNoOzj9MmAn51+0Em4HJmcA5Az2jLTIORq8tbl0HLQhV6K4pTMM2b09F5j3l5FhePRBchg8lvg2EFAySHF//tXtBdYXaBX+ZbCd+NMOgUBJ8CBiYHK5v3r4OzQ2k1FJ+nNY0f6vXUjxT0lG23N7pTNM42o4ZrTITkyb2vhUahZcKLhyX3I5xV4rV9G1HlLWV/rz99z/ACrRI/6NBJQKL/iHHYDiuVJBma8o0HYmjlD410G4v/GP+gzArpEjlaIhu9fkiguYHHI1HXKUkWtn95r2XNd6PL2qPv3vH8NUpq/Mw1BA6bAamOXPyZXgjQLA73r/LvUCvEJGDzb+WQ8A9oweEgr1dHli5Lw5ewdcTYcd3WfftR77dtdX+8sHK7hnYCwvYwFlglwNXNbwN+ptpa7GtqZeYvbv2XZWDmVgFFBK9E15oOlPAIZGp6mlLQdvK54GuVycvSVX7O6Q3TubDZJy/PO+tQQZTXM6EKxIFwroSgixunn9kwm4qG4PhX8h+y8RJMt5/o+ebdxVDwCGx/rLOZVvwRWr0u3ZvcOMvOjZoLWPwq6tyTZcOX+AiGccsgV0EmS0+kBnCoV/xrYTf4fB+ZcMv2zdMT4DEPW1iQI9md1bOfsEuV6bytcSTRDYs6MeAOSJCs+mCwV0J8R48BcK/0LhX5ejKmMCgP21sfyze0vHY53dd/tUvqZc0dl9koyU9U/8RlGyuHPIEAD0KqTYEz9FHgr/3AcWAQVhmLGhea076wHASG3MiWPtyqn8BLley+59zwY9sxp2el3tTw0pNuRvNKAUkHKv2dK4Dp1jYvbv2bYxh05NRHD0JcY8Lvjl3tad9QBgLJqS/1S+Qi5k93Y8k2KuuAqYDRoZgpVLNfg8IKoUEHUElAJTKnuoTRSb+iz8y7mqP5egJhT+dQykvFO1e/zZv4hZD7Pbs3vdIjNX2X23T+U3yJn2lycWwVjrapQ5oW9sOF0ooCshorasqL5/YsNT1t2W/Wvq6dhu+nnlXfgXxxFQICR9fT9UHeibFADcZfc6zt6SS7mry6fyobOz+zRs3wQb1mnY84TRymhxxgMKRTRlD4yQ65R64tR/AdP5JradBkYBOeE+nv8j5QBbDwBEXBVMt0/lO+CaPNzt2b2n2SAZwYpc1vqPh6iGAKBXsW1LjcMPbdih83y7xFPqXgv/bDkCCoXglrhDLa//hew+9+y+0wr1jLlS+stTq2DvLs02eYIkrALYqzikf2quWXdi9m9rL6eAJDUwCighJCJSTv/DgRqAtPmq2D8TdurJhEI9S668p/ItuGJVxnfWRmFwuQanZ/TJvN87DCgLKlP7D/xh6+RK8rpdUW8zZOII8IwFnPOTJ+MOqmsAJhAK9ey5IGT3aQcGH4GR/Rp2PENGBxXdhICCIKoHw/hbAEZT/xYOti3719RzYTurnvLapHEEFA/5X0lHJ2YAaqWfym86FLJ7Y65E8QJqPfbvgScf17TrG/KQolsQUBDk2Kz677bDC/9S1/sPhX89iD1MG/2fJIGJIsCR+k0M2b22vV4q1ItVyXA9Vy5K/thPnhCVGUU3IaAgVMQRzUNfibJuXY5Q+BegguR7PPfOxAKriUcA++MH81CoV/qp/ESVArL7tN27tsHGdXrNygMyzAD0LCKO9Zc92xb+ObRtrNfCYVUTEVAKCPmNNJGJAGB8BZZQqFcXC9m919mg1ctASoPAyjOECDMAvYqKPOPAHx2S8Xst/MsjsAjIAYs57/aFaUITNQBDk3s6YirfEReUP7svulAvTca0v+zeDpvXa9jKEZIwA9CrkJzR3mXzLvzzZFtLL4FDmf2n6QWUAkL+m47YeA0ADUuhhuzeyF43F+pp7TbkWrWknv2XCSIKMwC9igrPrfsvDw5Wu/DP0raTRxcxHKHwr5OxkV1TE6v/JzBRBDgUfz9Dod6kXEdO5VtyKXdlvDd7tpUv+weIKrOKbkJAQZCcXqqsW5fDuvDPge0QCJQbkn/gylu03q/uG1do+CBGKNQL2b0DrqZD4xtlzP4BhDyx6CYEFICHP3AUyJnqgz4L/0peXxAK/zoZu6iJr+kKT8wA7Gq7v4VN5WvKhexekydGLu9ajz07YFMJs38AxAlFtyCgAFSj85vHvRJn/NaFf45th6Cg7Pg6L/jxDl3hiRqAhncFeyC7D4V6GjwpcqYB4trl5cz+AQgzAD2JSLz4gDP1WfhX8oy/cTsU/nUyhpki/8FEoR4ARGJ3JicWCvUMeBRynZ7dp3GNDMEzgxp6hSEEAL0IIV+SLGBb+JeRI0k2tfDPo+3g9MsNIb7JWbc9Y6JSGf9vywxA6z9aDovmf7FOIYHnQKMVfGk8CfaauFSiBlwouNqcoSZPE59KzYILBZdQyGhxqXYLBZ9Gm1oPr3u0PKv+qXEYV30svArYS1g+0A9cVv+j4KxbV0+r8C+D7cTYPgQCJcceZPQ5U6XxGYDKbmVkaTTNG7J7pZx1dh8XMDnkajqUYcah7XCDTK0G68uy5n8CKtWTgEeLbkZAThjZdAlCTG/emTHzFVk4Cq4vEA3bVrYDioX8MufdvtFUa7wGINoxmU26cgTg0NmPy+Xm7C24YlUyXE9vzt4BV9PhBLmnV9YfAZQeUQgAeglCvLi+UeKMX6vwr8j6goCSYBNT+KqNYj0AqFS2JN9XV85ek8uZs2+Qy8XZW3LF7i55dq/Ds65DfGpUORv4RdHNCMgNr3OadSdm/wl6Lmwbc9gW/gWUElJ+lrNu322jWg8AamIzlYmb3+1T+RZcsSrdnt1nDBy2bai//tcRkOcU3YKAnLDwQ8+BsSvUB0uS8Vu/9lfkGwUBuUPwBJWpqR/9iUM9AKjWtiCrCUZCdm/NpdyV8XoWMZVvYm+iv6x/QoOvJBCcW3QTAnJCdexNIBs6csasuy3719TTsd30c8u78C+OI6A0iMSfcv4tI7bq9QCgr7KZ0Ya9HZvdh0I9Lbk8aj3GRmBjqV/9a8XzqZ9sGOm6HUK86cBtzpj5ei/885jxpxb+hZ9CuSFv5vzb7szCUH8NcOCK7QgxVp7X8BqO5fIansH5tcq0qWbgatstWvh0eBTBTSOX0WubqtmM1nscw7V+Zf0NgM7Bobzkk2E9gG7H0j8+DaKL9BUKLKLLvfBPhyOgJNhNLfpIVpJ6AFDvaVsP7LZx9sLS2TfIGTl7XYevUrFx0DEOPwtX06FWZ28YODQdbnX2Ki7N66nj7FVc61fEyJYYtbHwGKDbEfF2Jjt7RgcrLPVc2M6qJ2L2B3QIxGe48KdPZ2WpNBBuMHP4MTImDsxopkDDXimyex1nj4aD1mh7q7PPZVEmDa4dG2HP9hjdEqMiQgDQzVj5gakg3pssVJKsO5fCP9ccATlhKVt2/KMLor7JLSGfQYoLxv+I9yMHFDRNiKb/2XMpnJ8rLuUuw/NL3G3ZJqWIIy5IcPCmXC33+OlVevbLBsmlRTchwCP2Rm8Djqv/kdHBtmX/mno6tpt+cj4L/0w4AkqCUaT4A665Z8wF2YEAgMrTTp10JgetkIudcTDkid2d0Rm6dvjazl5TLq9FmaSEDWs0eTJAot9cfbzYOWNAeSDlh9r7TN6FfxltZ9IjxvmHjL9zID/N+bc95IrtwCMAIRueJxhOdZd6vXzV6eicX4K9Vi4X6+U3cuVVqKd7DUxqPTY/DcP7YrhKj2N5yadOLboRAR6w5H2vQnB+/Y8Sv0vvtfDPliOgJHiI4WO/7JKwYQZAPJ2cUoXs3llGrp3da9or05LLz6zUtFNSyNGrgBymMAJyheQjExuNO9XbagIgJftPb0Qm28Z6LRyp2X9AibGPSL6NS74xmi6qj4YiwErDZwTzzu4zZORW2X2CTGJ2r9MmVXbfmo1nyMiLzO7TuGpjsDEn36kbz5hCVq70xBxQFJa891rg5fECJcm6nRf+5RFYBOQCKf+CC253/lW1AzMAsvIUIkoQtcgyM80UKGSsMvsUuZ7J7kXT/5xwtYpvWgdjTgPUAiCvKroFAQ4hByos2fSl8T8aD6Qptm+3Zf+pxjW2XeolcCiz/zS9gFJAcjvn3f6vPqgPzAAM72tYts0yI1eqOMzurXi6Lbs3uJ55L8qUR/Gff5zLy/7isKIbEeAISzddD1zcvNNn4Z+lc1d9jl1HT8e20vmHjL9DsIqR/ncg/NykAwHAl160G8RWfWev6/A1uFTBQyjUSz6/VhnXizKp7nESVxTBpvUxnB2FCsNcXXQjAhxg+ftmIPls/Y8Sv0tvXfjnwHYIBMqMIaLoTVxyy05fBiotf8fPAmg5ewPH2rbLMnBoO6Tj7DXsKZ29ReAwKWbj7HUdvsX5tcpkrfXY+jSMDcfY6TBI8ZqimxDgAKN8DDjOb+Ffid8oCIV/nQ0pPsQFP3nYp4m+5j/FIHBpvEPRQYwzNeZKkGlzThm4mg474IIEB2/BNRF8ZeZpkEsUt7gGAti4VrMNHYHfon5WYaTsVCz74/Op8bF4gZJk3UaFf45th6CgvBDcxHk/tv7Mry4qLX8Nxmf3KvjM7lWHuj27b83GPWX3pufXKqNS2bQuRrcjcTwv+ovzi25EgCVWfmAqY+K7wFT3hX8lz/gbt5XZf5peQPGQ85k6krJktRuoZgAS0KnZvcOMvEzv3KtkfGT3aXK7NsO+XRrcHYT6Y4AlRTcjwAJ7a3/D5KI/E7At/MvIkSSbWvjn0XZw+mXFGqLq7/Lc23N5nto8A1CTDau4KLLDtl2WGaRyt052n2KvlStroR4tXFkL9bxl9ypxh9l9GtfGJ2O4OxiCUAfQiVj0/quAP6v/UeJ36bUK/zLYToz1QyBQUuwiqryOC27dlJfBlgBgyoqmAb5tzLdx9iqHr+PsNewpnX0GJ93pr+EZO3uVw9c9vwlI2NyFAQBcwQs/fmTRjQgwwMIbDkNE3wGqmTNfkaRX4jcKQuFfp2IM5O9xwa2P5Gm0OQD4/HkbEWyfdKxWDl+128ZBi5jDrQ7fgosWnjK+hmfk7DUClUyvbTZCNv+LarB9g4Zex6FKP68ruhEBmrj5jVX6+v4XOC1eqMCMX6vwr8j6goACIZHcwHm335W34dbXAAGxwsqxxjp7S8eqdPYajk43uzc9v1aZTizUs8nu2/61HN7ydD0I6ErItxbdggBNnDnry8Cr6n9kzLqFKUdJ3igwKvwLKBE+xvm3/WcRhhUBgFxR/7+Os0fDQadwTR5uddCWgQMKrlJM5TfI5TKVr8s1AQ1nrzq89akU3o7GtVzxyROKbkRACha9711I8aftBywy/rafic/CvzK/URCQC4T8LOfd5vQLfyZoDwBE5XF9Z2/pWFsdvm3gMCmW5uxVXAkyPZnd6x5uObC5qwOACn2164puREACFr/vRQi+dmBHiSvrm36SeRf+xXEEFIh/49zb/7rIBrQHAFIsb3L4ps5JebjVQWdw0qXM7hOcfaLDj2lTanaf1dlrZvdpeqNDsGtLiu0OhxThMUBZ8fCfnAziR8DU+o6Mma+w1HNhO6ueaNi24gjIF/K/OPcFHyi6Fe0BQB9LtBydSqYxcAiFehpcChmliomzB2fZfRq2bQDZ7QOLvISrPnVm0a0IaMGCDx9ElR+APEpfqcAiutwL/3Q4AgqB4H/Ysut6xEDS53dzQXsA8Knz1gNb638YZve2gcOkmI2zT7CX21S+BZfK2Zcpu9ex153V/wrUwixA2XDQyFeQ8pIDOzI62MTsP0HPhe2sev+/vTOPc6sq///7JDPTha607NSyo7RlraIIbdEKghQVKKCIgmILLS0gKjtGqf5Ascjqt0UEEQUpSzstLSBI2aTsawWKspSydN87S5J7fn9kOs0k9+aem+TmLnner9cwyT3PchoyeT7PuSf3unb/XtDk5QAAIABJREFUQmjQ3MyQA07l8PmZoKcCtpsAAaVet+/uCwt0BR25r929nWnA3X2QG/XKLvZ2vnmsXuohToRRnM6oVIO7oVATXp7weRTj3Q1D0nXXZONftWMIPjCNYQecGYbOfzP2AsDiFfvu3o64d/cehYNTd+8p1mZqtJTv6Ofgq8nd/nd1zS5YFTSDyLYdE/QkBECjUIk/gk7kH7R/bB+g6HFR92/oZ5K7y5+4D4LEtvt3iyHUHKWmMnTWWWEq/uAkABLqVf+7ew+FVTbq+buU71bsu/x0PFi/CrJpw1wxQDMx6CkIwGsTjgR9kP1gGQW2qPjXuuuuILdt8ZeOP2RoUL9k6MzzUeH7H2IvADpvgmJQxMK+Uc+uQFcSy7i7dyPo7t7UzMFvTZ0s/2/hq3zpos8GPQmB82tTYMvs+PPxdeNfuTGEGpJGcRrDZqaCnogT9gJgu5Y3QLXajlVtKb/Dzu+lfOnunf2cunuTfPWz/L8ZRZKzgp5EXfPKmTuh1Ve3HKiwOJbs/t0IoOPPt3Xt/oWA2YBW32TorNuDnkgp7AXA+OFpNK+EvruP1UY9u0FTqtzdm+Rbt9KDfWw4nS//vHfQk6hbdPJboF3+AEPSdVd9418thIVQJT7Bskay78x5QU/EDadTAKDUcw4DNj8ONrJRz0OxD1F375ZP69wegPqjNyROCXoSdYvSR215UmFxLOr+3Qi4489/bNv9u/kJNeJF4GD2m/1S0BMxwVkAoJ73VFgjuVHPNNZmyu3ufS72dqZ+riZsWB3jGwC5oNTP5CuBgXFg8aEyCmxR8a9ycVdl+pnkti3+0vGHAq3vpM0awbBZHwY9FVOcP8gUzzsN5P9yxtWgq42juUkcGzvHFQcvuPwxOQ6X+0do6Fdk5nO+QvP6XP7fzG5k208G7gh6InXFS5O2gewOuScBdN2mMcre+FeF3CIEgiKDUj9j2Kw/BD0RrzivAFy69yJgTXS7+0qX8kPS3fu5lG/sorvmrc/l/3wuhlSJ1TOh6iStQbkHFRZH4+6/RAxf/AxiuHb/QgCsRHMUQ2dGrvhD6T0AGqUWlFfs8+xCuVEPXIuh47CPS+u2Zj7nKzLXxQW/kPpeAQD05zis7bigZ1FXaN23xKDBY9cEZcbIG/e08a/KuUUUBIB+ioR1IPvOeiTomZSLSxejnvbckUdio16dd/deir0dG1YbzivWXIr3c0pC2aitKi6OJbt/wxhV8/MYw7b7d/MTfCKL0lewYt3hDJm9OOjJVEJpAZBQT9oP1HIp3zTWZmpd7O18Tc0C6u4ryWdloWWjB9/Ysh+HXiKXB64ZOu9NV0ZRLfrYqHJxd93452NuKfq1ZCmooxnafHlYbuhTCaUFQPfuz4Fqj1Z3bzpcreIbs+7eLV/LOtChupx1cCSsy5FVgNqg1NrSBj503aZ+Rhv/Kshd8h0mQqCGzKbJGsqwmQ8HPZFqUVoA/GRQC4oXZaNerYq9XTBT8yp09yZ+G9d5iB1zNMMZcfF3gp5GXdDKB7kHZRS8kkv/tei6K8htu/Qvhb7GrEWr8Qyd9U32nr0i6MlUE/edzFo96V6kbQq5bNQrI1/A3b2jW16+jS6NWL2h9a8Zleoe9DRiz8E3rgQ+3nIgwI4/f9zX6/1X008oC6XnYSWHsu/M6YTwZj6V4i4AEurx4oMuxV66+/LzFZmXW+ztcpq66YK8ecgKQCG7kG2fFPQk6gPt4epqHe/bmm38q0aMAlvjjX+CD6wC9X2GNh/NfvctCXoyfuEuANpbnwCVlo16PhffwoLv92pCp5su/inFJlkBsOFiRqUGBj2J2KN1x7XVDQtsTTf+Bdnxi0CoMv8gkR7CsJl/DXoifuMuAFJDNqB4TjbqVSFfkXm53X2Nir1dzpYNHnzqhn5k2i8NehKxJ6vnUPKP2e1xFf26fOT5kNt4a6kU/yryJpYazbBZJzNk7qdBT6YWmF7N7NHwdve1LvZ2wUzNyyn2ZeTrdKuw2NvlbNvkIU4doTiLURfuEfQ0Ys3w6YtB5110pcR72veNfz4Jiy7Fv9wYgkc2gfol3dsPYL+ZjwY9mVpiJgASqsSL4lKcHId9Lr5FZtXK5+JbWOxD3917yJfJQLrdMG7d0UQ2cUPQk4g9Wl/b8SD/oMNj2wBl+uVR841/JjGEMtCg78ZK7s2wmSn2nNcW9IRqjZkAaG1ZAGx0LRaOw+V224Z+RWY+5ysyL7fY2+U0dSun2FeQDw1tsvzvwpGMuOSkoCcRa/bfcR7gsBmw4/3sy8Y/v4p7ga187a9G6MdJ8CWGNZ8U501+bpgJgNSQdtDF3wZwrCXV6rZNzXzOV2RerWIfou7ezq9LTqBVlv9d0fyBQy/sH/Q0YotKWWhrEp1v5hoV5s78tRAF1Y4h5PEmWp/IsOZRDJn1bNCTCRrzO5pZap509z7m63Qrt9jb5fTol1/s7dxb5RLA7ujtUYlfBz2LWHPAzf9Gc4ttQSzq/u0os6jWbOOflxiCIYtR+jSGHjCUfZtnBD2ZsGAuAJKZub4XezvTyHb3pm7VKvYe/18Udveu7lpWAMwZz8iLvhT0JGJNv/ZJoF7ucqyijX/5+FDc3ZCNf/6geB/0ufRauzdDm/+CSsl1zPMwFwAX7fUu6LfMjMss9tLdVzdf2cXeLieQrrs9MuWSIKumc9C4xqAnElt2va2VbPZEYGl1CrNb9++nKCg3hlCCN0F9n+Vr92RY87XsOr816AmFEXMBAKASc4sPGhanoIp9F5eodvce/Sou9g5OGfkGgDGKofQccFHQ04g1B93yX5Q1GlguG/8EADQvo/WJDD1gKMNm/jUOd+zzE28CQGNzGsDRtsCswqJWbrGX7r56+WQFwCPqMg696OCgZxFr9rvlDVCHo/nvloPlFuZ88mxl41/YyQL3ovVI9p11IPs2z5ClfjO8CYB065NA8bVgg+rugyr2FOSMVHdf5jw1cg0A7zSg1N8YleoV9ERizf43L0RnPo/iAWejIDv+EjFk418lrELr35JM7s6wWSewb/MTQU8oangTAKkh7Sg1NzTdvd/5Ot3qoLvvUuy1fRgRAOWwO9n23wY9idhzwG1rGHbLGJT+HopPcger0HUrtxgVCAvZ+FcuC1B6HG3WIPZtvoB97vsg6AlFFeMrTncy5Z2xoO/2nsrjm1kXPfA3X6dbjfPl+3oOUaW5moZ54l7YtPlugKrLr2IM3lrKzabEuHIZd4uhXMZLxShycY2h0YljeWrKHINkQqUsOKUPPZsmg56AVjt4L9Idj402/tk9NrQtKQBECBSwFPQdJNSfGTLrP0FPJi54FwCphb1oaFwOuNwDXQp+Sb+wF3s7w8f+AW0tHU9EALjm6GqzjCa9L4/+ZqmBsVANFo5tItt7LFqfAno00OipSNsKgHJFQUEMT91/3QqAdjQPgvVn2neYy/Dp6aAnFDe8CwCAKYtmA8dsOSDFvqRfzYq9jW8lBb+QR/6e900AEQCuOYpt5vBk4zdBNijVnNe+2x/dOAYYCxwJOu8rmjbF3VP3X4YQKBIAUvw7yAILQM8g3e3vHDhjedATijMNZXkp6360OsbdkCoU+wp8Y1/wfSz2dljZ8vyEzRzDiPTFPMGUoCdSd+z799XA7cDtvHrqtpA4HvTxoA8Dmpwdq1GYTZb+3fxiTSvwT1AzaGtsZviM4o3mgi+UtwKQensgDXyCnYCQ7t7ffJ7DVFF4PXR73ussKwCuOextLJQ6iiemPGzgJPjNC+N60tR6CDo7BtRxwM7u3X8FpwFUuTFiRu4KfQ9j8Qg90g+x57x1rj5C1SlPAABMeXsemq/nnkSl2FeQM/YF38Fv82HLgn/+NW9ABIBrDicbxSpQw3liynsGjkKt0Che+94BKOtoSIwG62A69zpV6ZRA/W782wTqaZSeh2XNY9/ZhleVFfykfAHwqzdPQ6lbvTlJd2/kF3SxtyOThkf/nndABIBrDieb3MNXSG86hGeuaXFwEILmsVENDNhxP2A02joUpQ4F3W+LgWz8K8F64FlQT6P1U/Rof5I958mVxEJG+QIg9U4fktmlOH4bIO7Fvgo5PYepYcEvNEi3wr/yv/0pAsA1h5PNlofTeeLX4w2chTDw2KgGtt7+IBLqC2h9EOiDgM+BTm4xqsuNf2lgIaiXUPpFLJ5k2AEL5Wp84ad8AQBwxVv3A9/KPYl7wa+jYm9HWyvMFwFg71K2AAClJvD4lD8aBBDCyAtjetJtq/3R2QMhcRBYQ4C9QPfdYuSl+w998V8NvA28gtIvYSVeokfbG9LdR5PKBMCU/5yEVncZ20ux9z+ncTiP+dpb4TERAPYuFQgAyKD0sTz+m3kGQYSosHDs9lj6s2i1F1h7o/gsWLsAO4PqE/Lufy2aJSgWoViEVu+QUG/T1vC2fC0vXlQmAH736la0Nn0C9C4ak416/uczDleFfOk2OQXg6FKRAABYj5U4jKeueNUgkBB13jq2N1k1CEvtjNY7QWIQSm+PtvqB6g/0J0F/tO4Pqh9Q6W2l28h17muANWjWgF4NahWKT1B8SFZ9REJ9jLVxMfs9vLHSf6IQDSoTAABT3rwVzWnS3fucz1M4H/5fZNrh0X/kHRAB4JrDycbWXH0M+os88esPDYIJ9cTCsb3IbmqksSlBOpE7taCyCk2/robJ1Vset+Yeb+jZyiEzZKOpYEvlAuCKN0eh9WNmxrJRz7NfLbp7k+FMGv6Vf7ZHBIBrDicbewEA8DKJhhHMT20wCCgIglAR3u4GaMeln30c9Lv2g7rgx5QO+4pvfWuas8DH6W54fuXLFzglw1U5n+tw3gHXu6IJVeAAdOZOxo5NupsKgiBURuUCQCkN3FFxcQrbrW+Ncpri4Ocarsr5XIdL+KnK3yqCAZpjWLr3LZCSF1wQBF+pzoeMSt6GcYWqVndvSmHBNw1TR929ST6VoBpnjAQjfsCI9PVBT0IQhHhTHQFw2WffQ/Nk8UBUunsfim+UunuTfApIysp07VATGHHZNUHPQhCE+FLNZcbp0e3uy8zndDhq3b1pvmR5N48UykWfy4hLLwl6FoIgxJPqCYD+Tfeg1fLYd/dBFXs7E/cBjzldzBpEAATAFEZc8tOgJyEIQvyongCYvGcbWv+168Fyi6GNb1i6e7/zOQ373d07muU9SVZ6PRKhPNRvOeyyM4OehSAI8aK6O42T2el4W/vvoM67+6CKvZ1pKb+E7AEICIXiJkZcen7QExEEIT5UVwBctt/bKB4vbVTrYm/nW/qwBwNv+VyHfcrnZKaLDpRO0yArAAGiQF3NqMuvDHoigiDEAz++a1xwZ7PCgo9hvalWMazT7r7SYm8XqLGboY/gG1pfwMjLrgp6GoIgRJ/qCwBrxX2gP6xNd1/rYm/nazpc4+7ej3xNIgBCws8Zcdkf5WJBgiBUQvU/QFKHZ9D6/2rT3ZuGq/JqgutwBLt7E7/G7oZxBd9RnMnI7M2MSslXMwRBKAufOoj0dKA19zgq3X2ti72dr6mZz/mKzHXup7HJQy6hBvwQnZ3Lwak+QU9EEITo4Y8ASA1fAdad0eruTYd9Wk1wNKtRd19Y7LWNXzc5BRBCvkb37FOMuGRQ0BMRBCFa+HcOMUGJa5nHvbuvdbG3C2Zq7lDs7ZBNgGFlGCqxgFGp/YOeiCAI0cE/AXD5/i8D/6p9sbfzNR32ufgWmfm8mlBkXqK7NwnQJHsAQsyOaOtJRl5+VNATEQQhGvi9i/h3nY9c65VPxTDy3X2ti71dzg569ETuCBhqegGzGHn56UFPRBCE8OP/p/kvXnkZKFia9FKMPPg5Dpebz4Ov7QqGj/mKzGuU78lZ0NZK51vH8R1k8NZSbjYlxpVhDicb5TJeKkaRi8cYtuaGr0VJs/xBNZ0VahILU+0GkxMEoQ7x/3vEmqnRXcqPW3df5jzz83XfyjCXECx6HAOsf3HYxTsEPRNBEMKJ/wLg08xdwGJ3w7gv5dsFMzWv8lK+q5vu+pNP954e8guBovgyiYYXGJE6JOipCIIQPvwXANOHp9HqD8UDQXf3pmY+ryYUmQfY3dsV/EJkBSBq7IiyHmfE5RcEPRFBEMJFbS4lmshMA70svt19rYu9XU5TNw/F3i6frABEkQYUVzLyF7dyxE9FwQmCANRKAKSGb0JxTefz2HX3pubVKvY+dfcm+XpI/Ygwp9He60W+kjow6IkIghA8NbyZSLcb0KyQ7r7K+Trdyi32djlLsFVvD3GF8KH3xmIBo1IpUnIzIUGoZ2r3AZAasgFtXe9bMYxNd2/qVq1i7/H/RVMPSCY95BPCh24E/Qvm8zBfS+0Y9GwEQQiG2nYA7VwLrHE2KLPYS3df3Xz5vp05Ow4pBT3l3jPxQH+VNK8w8vIxQc9EEITaU1sBcNXwtcC1uSchX8rv4hLV7t6jX5e8JULIaYAYobdBJWYx8hfTGH1B36BnIwhC7aj9OcBE96tBL3ccD8tSfmy7e4/F3i5fTxEA8UIrFOPI9HiTkb/8dtCzEQShNtReAKSGbEDrq4Hguvugij0FOQPp7k3dS+STFYCYondA6fs4PHU3o1IDg56NIAj+Eswu4KS6Ac0ngXX3QS3lR6G7N3HYSlaKY41mLJqFHJ76ftBTEQTBP4K7tdtlz58NXO9u6KVQ55t79Cs3X6dbjfPl+3oOUelcNTzxAGTScjOgcmLU5GZADuOuUy0yuJ8GzuWRlMHlvAVBiBLBfQ842XM6qPeLByLa3fudr1bdvZNffj6toHc/D3MXIsy3SfMmo1KXMirVPejJCIJQPYITAKkh7ZC9xFNxCurcfVyX8kv5uoURAVA/KHoCV6BYxOG/ktMCghATgjsFAIBWXP78c2iGFw8VPSgnfplutV7OD2op32uYPMNlS2DhC3IKoJwY0ToFUDCkAB4loSfzaOo/btEEQQgvAV8KVGk0PwV8WMqX7t7Wr8tSfqkwLvl6yQpAHfNVLPUyh6eu4tD/1z/oyQiCUB4BrwB0cNmzzWg8XI2s1p19BTmj2N0bmWt4ai5k0w4GsgLgaBP9FYB8VoO6ktZe1/PMT1rcogtCbBg3rZFPrGOBr4LaHYWF4l3gQZq2nsuME7NBT9GNcAiAS5/fG6w3gAZ7A1nKN/Lzq9g7+b36DKxe5mArAsDRJl4CYDMfofgllr6V+amMWxZBiCxj726iddUZwIXAoM7jXf80FoE6k+bxj9V2ct4IhwAAuPS5G0BPjH+xr0JOz2Gq/NpsPvzBInj/TQdfEQCONvEUAJt5G524lPmX3guqkiU3QQgXo1IN9Nnu+2guA7VL0Xjx50IWmEDz+Om+z61MwiMALnyyPw2NiwCzK5BFpuDHpNjbsXYlvPKUw6AIAEebeAuADhv9Ajrxa+ZfOkuEgBBpUqkEL2z3HRS/APbMHbT5O7D/XLBAf4PmMx/0dY5lEh4BAHDZgglobiw6LsXe/5zG4fIMtJXbB2BZNnYiABxt6kIAdD5+A21dyTafuysK50QFoZOxdzfRtvJ7oC9Aq726DhoLAIDFdNv4WWaEb49MuG7svt0RLzGgzzeB7csLEPeCH2Cxt0MpWL0c2uze1yIAHG3qSgCwLUodR8uK77PbV2DwyFd5f77sERDCy1HXdWOfMT8i03IPcCqoAcVGngRAX6zG//H2nFeqOs8qEK4VAIBLFhwK+glc5ybF3pOfUbgycr73Jix+x2ZABICjTX0JgMJDH0Hiatoab+HpC9YbBBOE2jBm2kDIjAc1GdS2pY09CQBQzGTW+NDdaTN8AgDg0mf+gebELQeq8PU9Kfj+5Fu9HF5bYGMnAsDRpr4FwOYna4HbSHIj/7zMTkEKQm0Yc8MQdPIc0N9D0SN3sIzPptKfC4toHr932XP0iXAKgNRz25POvAV4vO2cFPua5Msftix45kHIFp7eFQHgaCMCIP+JBfohlLqOw7IPk0rZbSgRhOqSSiV4Yfuvo7PnotRoNr8pjT8XPAuAxTSPH1zGTH0lnAIA4JJ/nwtc42wQcLH3FCpGBd+ON56FVYXXAxAB4GgjAsDBTy9CJ26ke+Y25qXWGSQSBG8cfeP2KPVDFGcAuxaN+ycA/k3z+C8bzrJmBHwp4BIsWnI98NKWA/mXss27nK0rRte9dfcrDOMYytjQzM81XJXzuQ7bDPTfxjCnIJRC7YXS19KWXMpXptzN6CtGgw5vkyJEhzE3HsqYG+8myWIUv8au+PuJ5rGa5jMk3H9clzw1HK0WYPxthYgv5RuFrHF3b5KvZQM8P7/goKwAONrICoB5DM17KH07DfyFhy97z8BREHIcfcNeJNX3sDgVxS5bBtze4y42TuPOnwsZLL0Pc84M3V6XcAsAgIufvgk4y34w4gU/isXeye+5f0Fr/tcBRQA42ogA8B5DoYH5KHUbiaZ7efhnGw2CCPXGkVO3pqnbyWhOBb5ob1RzATCd5vHjXQIGQvgFQGpBH9qzb4Ae5G5sR50X+5ImVcz53zfg4w/yDogAcLQRAeA9RtenLWg1D/Q9tDXOka8T1jnfuKk/Wn8TpceiGA2qqbRDTQXAxySahjDz9DUuAQMh/AIA4OKnvwF6jplxnRf8WhR7O1YtgzeezzsgAsDRRgSA9xjOr3krioex1D1Y7bOZnwrlB61QZfKLPowGckXf6D1aQwGg+Tazx890CRYY0RAAABc9dQeKU7oelGJf03ylTHUWFjwKmc23BxYB4GgjAsB7DLPXvB34J4pmSD7IIxcuNkgkRIWjb9gLZY2BxDeAw7C7e2yoBAB303zmSS6BAiVCAuDZAaj2hcB2QA2KfQnfeiv4tt88sOHtV2HZRx1PRAA42ogA8B7D82uuAP4DPAj6QbLpJ5mfajVILISFUbd2p9fGL2NZR6PUGErdiGcz4REAKyE5hOYfL3UJFCjREQAAFz51EkrfVdpIuvuK/EyLvR0rl8J/Xux4IgLA0UYEgPcY5QmA/IebQD0GPAiJR3nkAqf7WAtBkUoleHHg/mg9Gs1o4FDYfGW+fCIgALT+PrPP+qtLkMCJlgAAuPjJu9GMzT2JSrE38I1iwS/0s6zcaYBsBhEAJWxEAHiPUbkAKGQ5JJ4G/QRW4mmslpeYn5KbFNWSg6Y1sl3LgZA8BPShwAhQA/1/j/osABQzmXVm6K77b0f0BMD5jw2kKfk6nu4YKN29vZkP+d58GVZ8igiAEjYiALzHqL4AKBzYCGoB6KdQ/BtLv8ijF680mKhgytE3bg96OFgHozkUxReAnl2NavEe9VMA6OUkGcr9ZxVeGjWURE8AAFz0+LGgZtkPxr3Ye/CtRcEvZPkn8NYriAAoYSMCwHsM/wWA3fhi4GVQL5PQL5FULzPvgiUuTgLAkdfsQKJhf7CGozgIGA7sFI73qK8rAMfTfOZ9Ls6hIZoCAOCiJ/4MnB7/gh/iYt/FvOOBZcGzj3WcBnBBBICHGCIAXHM4jZcvAOzMlgOvoFiIxSKUWoTW7/DIBR+CqkTVR5MjfrctjU1D0NY+6MRQYB9gKIqt7R3C8B71TQDcQfOZp7o4horoCoDUgj60tb8GerAU+xqsJhSZl/D77xvw6UfO45sRAeAhhggA1xxO49UVAE4xNgHvAItQLALewUp8BNZH9GQJzRG9WNGYaT1JtwxC6Z1A7Q7snvut98g9pvcW4yq95lEUAIolJLoNC+sFf5yIrgAAuODxESj+RdG9AqTgV5SvyNyj39rV8Ppz7nYiADzEEAHgmsNpvDYCwGG4c3w9sAT4CPgY9IeQWIbSa7CSa1B6DQm9hkx2DT3Vat8Ew6hUd7r16UlSD8RKDEDpgWg9AK0GgNoGxXbADih2BnYC+uX9Y1yC160AyELiq8we97iLU+iItgAAuOjxK9D6Uu+OUuztzauxmqDhhacK7g1ggwgADzFEALjmcBoPhwDwGiOLYg1Kr4UEaLLA5lskW8Dajse6OECiN+gGEoCmL9ADEj1B93OesNvr7XjQfryeBIBWKeaM/6WLQygpvpJS1Ohm/ZJW9RXgEGejcou9gW+lfpEt+KX8FGy7Iyz+X5mxDdNHX74KghNJoKMzd6PwD0F3+WXzRKga+nF6bD0l6FmUSyLoCVRM6vAMSXUysHrLQV3wU4DjcOGA6R+NoV+Rmc/5isz1lh8/80FOAPhZoaX4C4IQKHo5KvNdZpyYDXom5RJ9AQDw65EfAhNti5Nj7apB8S0yKydfGX6FBd/vfJ1ueQKjW3fo199DTkEQhMigUfoMmid9HPREKiEeAgDgylF3An8y7+5NKbPYx7m7pyBfZ94Ctv+M4RwEQRAixe9pntAc9CQqJT4CAGBjy9nAC/FfyifY7t6u2NsxYGBuJUAQBCE+PE/3rS8JehLVIF4C4Pqj2yBzPLDCzCGqS/kh6O6N8gHb72ToKwiCEHrWQsNJzDixPeiJVIN4CQCAq762GKW+AxRszIhKd1/jpXwKchoXe7ucNmy3E6j4vc0EQahDlP4xs3/8XtDTqBbx/GS+8vBHwPpVNLt7n/J1ulWruzf0a2yEAduaz08QBCGMKP1/NE+YEfQ0qkk8BQBAj6emoJnb5Vi9dfe1Lvb59p05gR12NvQXBEEII/pZ0plzg55FtYn3t6kvfLI/VvsLwG7euut8yvDTRQ/8zwkel++rkG+zn4n7Gy/CuoLLZMuVAD3EkCsBuuZwGo/mlQDLvSytw2GPMeRKgPlHl5JpGM68H8fuTpDxXQEAuPKw1Sh1HOhN5k4VLuXHvbvvktPEvcNoJ/lKoCAIkSMN+qQ4Fn+IuwAAuOorr6IYbz8YkaV8CnJWe6NeKT9Pxb5Evv4DoOdWHvILgiAEjNbnMXtC5G7yY0r8BQDAVaPvAHVzxd19XDfqVdrdG+VTsgogCEKUuI05E24MehJ+Uh8CAGBN34lo9S/H8bpZys/zrVZ3b+o3cFu5MJAgCOFH828y6TODnobf1I8AmD48TSYzFngbCE9khwT+AAAUE0lEQVR373e+mnT3Jfy65EvAjoM8zF0QBKHmfEAj32be5LagJ+I39SMAAK75+ios6yi0XhbP7r7Wxd7G1y3MtjtCt24e4guCINSM9SSyY7j/rGVBT6QW1JcAALj6yPeA44BWZ6Oodvem7tUq9gYFv9AvoWCnwR5yCoIg1AQLxfeYNen1oCdSK+pPAAD87oin0eoH2Las0t3b+pVT7J0Mt90euvcwnIcgCEINUPqncbjDnxfqUwAAXP21u9H8wsi27GIP0e3uTcOUkU8lYGf5RoAgCCFBczWzJ14T9DRqTf0KAICrj7gCzV+Kjlet2Ndhd2/qt8120KOnob8gCIJv3MXnl10Q9CSCoL4FAECvtePQen74l/LtcppSw+6+lF+Xwwp2HuwhpiAIQtV5hB4Df0AqZQU9kSAQAZA6sZ1k8lvAG6UNg17Kj1B3bxROw9YDoXdfwzyCIAhVRKnXaU2ewIwT24OeSlCIAAC46mtryTZ8E/g4dyDuS/l2OU0x6e49+A3eLe63pBIEIXy8R9Y6gkfGrw16IkEiAmAz14x+Fyt7OMpaau5Ure7eY76Kl/Jr0N2b5tuqFwzcznA+giAIFbOCBEcxd+KnQU8kaEQA5DP1G4vIJo4EVhcPRqW7r3WxtzMypcN+0GBINnjwEwRBKItNkDiW5glvBz2RMCACoJCpX38V+AboDdHs7svMZxyuygIDoLEJdtzJw9wFQRA8okij1AnMOfOZoKcSFkQA2HH1Uc+g1QloXDaHxL2796HYOw1vt5PcKEgQBL+w0JzB7Anzgp5ImBAB4MTvj3oIOAnI5A6UWwxtfCPT3VeYz3U472BCwS67ecgpCIJghEbrs5kz8fagJxI2RACU4vdHz0Rbp4P28B1R6e7thw3y9e0PA7YxnIcgCIIrGsXZPHD2H4OeSBgRAeDG1GPuAD3JfjAkxd5uyNXXlCp0917yDd4FGmRDoCAIFaNBTWL2xJuCnkhYEQFgwu+PuQmlzwvtUn4UunvTfA2NMGgXQ39BEARbcsV/zoQbg55ImEkGPYHI8O+/L+BLpwCMKm3opcAb+LmGq3I+IxMfcwL07Akb1kNbm7ON6vyPCw42ymW8VIwiF48xbM3dYigDM4MYrlMtYVDJa65cxt1ieH7N3V5vDzEqec1VLd6jbv5lxKjkPVrStCbvUY1W5/DAhBvcItU7sgLghanf+CVKF9w0wufu3tSv3HxOw35090ZmHXaDd4OEvD0FQfDMhTww4fqgJxEF5BPWK78f81u0Pgu0VXExjM1Svp2vqZmDX/fuuQsECYIgmKLURcyZ+NugpxEVRACUwzVj/g/UD+j8imAhIe/uq57PS3fvIee220K//h7mJQhC/aJ+yuyJVwY9iyghAqBcph5zB1qdCqTj3d3XqNjbBgN22RUaGz34CoJQZ2gU5/PAxN8HPZGoIQKgEq455i40x6Npi293b2rm02pCYyMM3tVDPEEQ6ogsmnHMOXtq0BOJIiIAKuWaMbPRfBto2XJQuvuK8hWa9+sHAwYWjwmCUM+0ofVJzD37T0FPJKqIAKgGfzh2HkqNAb0xvMXeztfUzOd8Rea6QGQAnxmc2xi4GZNvVwmCEFc2gHUMcyfdG/REoowIgGoxdcyjJBJfB9baGwS9lB/S7j7/9sql/JJJ2H1P+WqgIAhL0eowHpj8SNATiTryaVpNfj/mKVBfBr043kv5dsFMzQ2KvVOAHt1zlwoWBKFOUe+jsocxd+IrQc8kDogAqDbXHLsQnf0i6Jc6j/ne3Zua+byaUGRu2N17yTdgAGwjNwwShDpkISp5KHPOeSfoicQFEQB+8IfjP6EtPRLNA9Hr7mtd7O1yuvCZz0DPrTzEFwQh4jxLkxrJnLM+CnoicUIEgF/cdOIG+vX9FkrfEq3u3tS8WsXe0LeLwFCw6265fQGCIMQbxRwSTV/h/rNXBj2VuCF7qWvBefefg2YqRYLLtPi5HjDEo58ueuBvvk43Q7/1G+B/i8AqZS83A+oyLjcD8h5DbgbkPUb1bgY0nY0rJzI/5XDVVaESRADUinPuGwvcjqK7q60UfPN8K1fAB4tL2IgA6DIuAsB7DBEA3mNULgAyaHUuc8+W2/n6iAiAWvKTew/HUvcB/TqPSbGvPN+SJbBsmcOgCIAu4yIAvMcQAeA9RmUCYBVYJ/DAOY+5GAsVInsAasnU4x9DWYcCH9R0o14Xlxpt1Ot0011//Mi3807Qp6+H2IIghJRFZLOHSPGvDSIAas01JyykgS8A882dKiz21fwaXkk3XWbBr1AIaWCXwdC9h6GfIAghZB5af54Hz3076InUCyIAguDq45bxcWY0cFXxoMdiGFSxhzKLvV1Oj36dOfPck0nYY3do6uYhniAIoUCr6WxadSzzJq8Leir1hOwBCJrJM05GqT8BZl9sj9O5exM/r+5trbDov5BJdxyQPQBdxmUPgPcYsgfAewzz1zwD+lzmniOb/QJABEAYOOeefYH7gN27HK+bYp/n6zmEjUNrS04EZLOIACgYFwHgPYYIAO8xzF7z5WCdwNxzn3AJLPiEnAIIA9ee8BpW64FoZsV2o56dX5e8JiEMT1d07wG77yY3DhKE8LKATPIgKf7BIisAoUIrJt3zcxS/wVWcRaW7r2Jn79V33Tp49wP7f7OsAHiPISsA3mPICkCxjVbT6bVyEjNS7S4BBZ8RARBGzr3nW1j6L0CfLQel4Bv5FYZZszZ3oaDC10EEgPcYIgC8xxABkE8LJCYyd9KtLoGEGiECIKycfc9nSVj3AvsY+9R7sXdibYcIyL9ksAgA7zFEAHiPIQJgM2+SzY7loZ8sdAki1BA5SRpWbjjhLdZtPAilrrMdr/l37vN8PZ23t8vpMV/+9/2NwhQY9u0Duww2/DAWBKHK3Eqm/fNS/MOHfCJGgUkzjgPrT0B/784x7+695Fu/Ad59PydeZAXAewxZAfAeo75XANaj1VnMm/w3F0chIEQARIXz7t2NTOZO4AvORlEp9ja+fhR8O791G+D9xaCtjuMiAIxjiADwHqNeBQDqJZL6ZOac846LkxAgcgogKlxz/Lu0rTkUpa8EsrmDUV3KN13OL/d0hYOfBnr3gt0G564cKAhCtcmi9O+AQ6T4hx9ZAYgik+76IvBXYA934xgu5Zv6lgrZ1pY7HZA2uc24rABsGZIVAE8x6moFIPFfUKcxb9LTLoZCSJAVgChy/ckLIHMQmunFg0F396ZhqpQvX+CUDFkw2K0J9twNesi9AwShQjTo6bQkD5DiHy1kBSDqTLrrONDT0Aw0d4pKd19GZ+81Z9aCDz6EDRtLGMkKwJYhWQHwFCP+KwCL0eqHPHjOoy4JhBAiKwBR5/qT7yOhh4K619koqt29abgK9gokFew6CPr19TBPQRBQzCDRtL8U/+giKwBx4uy7xoJ1I7CNd+eodPdVztc5rGH5Kli6zMZUVgC2DMkKgKcY8VwB+BSsccz7yWyXoELIkRWAOHHDyTPI6r1B2ewNyMemY45Md19hPsdhBdsMgME7Q1L+LATBFsUMGjLDpPjHA1kBiCsT7/w2Sl8P7CTdvceBtnb4YEnuNyArAPlDsgLgKUZ8VgA+ASYz77x7XAIJEUJanbhy43fup3tmb7S+Ck3WvYmu4Dx66Lt7j/m6NcEeu0CfXh7mJAixRKP5K5YeKsU/fsgKQD0w8c6DQU8Dvd+Wg3Xa3XvJp4HlK2HZyq7hZAXAewxZAfAeI/gVgNfRjOfB855xcRYiigiAeiH1WAPLl5wH6nLAsLUNWbEvaeJjzk0tsPhTSKdzz0UAeI8hAsB7jOAEwEaUuoJlPaby4vi0i6MQYUQA1Btn37kjOnsl8D2K/v+HrOAHUextzTRYFny0DNauFwHgigiALcMREwBKz0FZZzP3px+4OAgxQARAvXLW7SNJqOuBYV2O11uxtzUt4btmHXyyDKyS5wRsEAFglMPJRgRABf5GMRaBmsyD5z7kYijECBEA9UzqsQaWf3Q2Wv8C6GdvFLOC76XYO9HWBkuWQmtbxwERAK4xRAB4j1EbAbAOza9YsdV1stxff4gAEOBHd29N97afgz4PTZP3ADEu9k5+GlixOnfxIKOwIgCMcjjZiACowN/WxgL+RjrxMx49d6lLAiGmiAAQtjDxL3uBmoJmbGnDOiz4TrS1w0fLoaXVxVAEgFEOJxsRABX4Fz15BBLn8+C5rxlMTogxIgCEYs76y2hQV6PYT4q9k7nuenDlWli+JrdZ0BYRAEY5nGxEAFTg3/nkNRQ/Y95PHjaYlFAHJIOegBBCXpj5LsfsN52Nfd+BxP5Af8CHYu/BN1QFvxAFPbtDn62gLQ3pjL2NzUOXg8XjIgAMY4gA6DysWIxK/JzeO5/JrDP+azAhoU6QFQChNOOmNZLsdjqoFLBD7mA9dfdlBFi/CT5dWSAERAAY5XCyEQFQjv8KFFfTsv5a5qfczlEJdYgIAMGMn96+FZusc9Gcz+YVgZLUutiX4Vutgm+H1XFaYOWajq8MigAwyuFkIwLAi/8aYCpt3a9h/sQNBhMQ6hQRAII3fnhLb7o1TAB9AV2EQJ10915Jp3N7A9Zs3HJMBID3GCIATPzXAzfR0H4VD1y02iCxUOeIABDKY9y0viS7nQP6PJyuIRDZYl+Br3bw29SWEwKbWkUAiAAwi2EuAKTwC2UhAkCojHHT+pJomoxSk9F6YNfBqBT8Khf7UmxoyV0/oLXwmisiAErGEAFgx0rgOtqS1zH/vDUGiQShCyIAhOow6bpuZHr9AM0lwGfMHWNc7B1zaljfAsvXQvtmISACoGQMEQD5fAh6KpqbefhnGwsHBcEUEQBCdRk3rZFk43fR/BzYp9gg7gXf4z0I1m6AlesgnXUxFgHgmsNpPD4C4H/A9bRtmCa7+oVqIAJA8IdUKsGnnzm6Y4/AV4x84lzs7fzy/73rW2HVOptTA5sRAeCaw2k8+gJgPpprOWRDM6mU05WmBMEzIgAE/xl/y37ABBSnAj2AgtpZbwW/BC3tsHI9bGwtcBAB4JrDaTyaAqAdxV0kEn9g3vkvGwQRBM+IABBqxxk3b0cDZ6HVeGB7b84xLPal8rWlYdX63MqAzruOgAgAwxhRFQB6KUpNJ6lvYu7PPzVwFoSyEQEg1J6xdyfZet3RKD0Zrb5K0fswDBv1PPpVWvCdyFqwbhOs3pS7sqAIAMMYkRMAj4P+I3033c+MVLuBkyBUjAgAIVjG37onZH8E+gxggCffqHb35fhpctcSWLsJNrY5/NtFANiOh1cArAPuIqFu5MGfyZ35hJojAkAIB+dN7UFLnxPQ1umgRlH43qx5sc/zDaLglwqT6VgVWL8J2vO/PSACwHY8XAJAg34S+DMk7pGv8QlBIgJACB9n3LwzSX0KmvHArt6cI9jdewpTYNieye0TWN8CabcN4iIAyopRHQGwBPRfUNZtPHSR3JFPCAUiAITwkkol+HiH0Wh1CopvA727GkS02HsK5eEeC63pnBBY3waWnRgQAVBWjPIFwAaUmoll3UH/3R5hxoluF3sQhJoiAkCIBudN7cGmnsei1XeBrwNN5s4R7e7LzqehJZ3bK7CxPe8iQyIAyorhTQCk0TyEUn+n+6ZZzE5tckkiCIEhAkCIHj/609YkrONR+gRyFxlq2DJYZ8XeZCidgQ3tuWsMtGZc9lOIACgadxcAWWA+cA9WdgaPXrzSJbAghAIRAEK0+dGftqYh800sTgBGY7wyEPGC7xrOyU/DxnTudEFLumMToc0Fh+wQAZBPFtQCUDNI8w/my3f2heghAkCID6fd2o+GtmNQjAGOBPrmBuq02JuQtTrEQCb3u63EaWoRAOtAPQS6mXS3OXIHPiHqiAAQ4sm4aY1Y1mEojgHGAHu4O9VBwXfD0rnTBJvFQHsm97VDqFcB8C6K2Wg9h/5tT8hFeoQ4IQJAqA9+eNPeJBNHgD4CGAW6V5fxeiz2pmR1Tgi0ZTpEQdbl7oWRFgAbUTyB5p+QeJBHLnjTJZEgRBYRAEL9MfbuJvqt+BJafQ3014CDgGSxoQ+XFo5CwTdB69x1B9IdYiBtdfxkclviCgmvALCAl0H/E60fpqn3v5k3uc1ggoIQeUQACMIp1/WhR9Oh6MwIlBoBDAcazQPEvNh7RWtot3KnDiwLMhqy2dxKQtaCDLnfJfFNAGSAl4HH0TxOtv0p5qfkXL5Ql4gAEIRCTv3dVnTrcQioQ4AvAgcD/XODUuyrRtbKiYUsHb917relc3251fE4/1NKs+XuiJoMijYUG4B2lGonkWhH6TaSCQut0iR0C+3We7Rm36Pdep7WxNM8fcH6IP65ghA2RAAIgitaMe6GvdGJL4L+IprPoxlKya8cSsEPgAzwOugFaJ4jkXyWnZe/TSrlttwgCHWJCABBKIdx0xrJtg2FxAGgDwAOALUv6N6uvkI1WAu8iuJVtH4FpV+lh3qD6+X8vSCYIgJAEKqGVpz2h8E0NO6DZQ1BJfZBW0NQ6nNAL1d3wY61wNug/gO8heItrMTr/Pms90DJMosgVIAIAEHwHa044/qdQO2Bxe7AHqD2QOk9gN2APgFPMGhWAe+i1fskeA9Lv0uCRSQybzL9vE+CnpwgxBURAIIQNOOm9SXbOgjUYLQaREINQluDQG2PYns02wDbYPtVxdCzFPRSUEtALUPrD1F6GSrxIZb1Pm28x98mrwt6koJQj4gAEIQokEolWNJvG7TaBs02JFR/NP1Q9Ecn+qGt/iQS/dC6B4o+aLqB6onWW6FoIndZ5ERnPEV3ND0KsmwA0lue6iyodeSue78O9EagDViDogWtWkCvAlaBXoVKrARrFSqxCpVeBT1XMH18GkEQQsn/B3XkAkegI7saAAAAAElFTkSuQmCC;" vertex="1" parent="1">
          <mxGeometry x="285" y="630" width="190" height="190" as="geometry" />
        </mxCell>
      </root>
    </mxGraphModel>
  </diagram>
</mxfile>
